<?xml version="1.0" encoding="UTF-8" standalone="no"?>
<svg xmlns:rdf="http://www.w3.org/1999/02/22-rdf-syntax-ns#" xmlns="http://www.w3.org/2000/svg" height="501px" width="290px" xmlns:cc="http://creativecommons.org/ns#" xmlns:xlink="http://www.w3.org/1999/xlink" xmlns:dc="http://purl.org/dc/elements/1.1/">
<title>Littoraria spp. (Mangrove Periwinkle)</title>
<desc xmlns:ian_image_library="http://ian.umces.edu/imagelibrary/">
      <ian_image_library:title>Littoraria spp. (Mangrove Periwinkle)</ian_image_library:title>
      <ian_image_library:descr>Illustration of Littoraria spp. (Mangrove Periwinkle)</ian_image_library:descr>
      <ian_image_library:scene>
		<ian_image_library:contains>symbol,vector,illustration,mangrove,periwinkle,sea,snail,Indo-Pacific,Mollusca,Gastropoda,Orthogastropoda,Sorbeoconcha,Littorinidae,Littoraria,sp.</ian_image_library:contains>
        <ian_image_library:when>2008-12-22</ian_image_library:when>
	  </ian_image_library:scene>
   </desc>
    <metadata
		id="metadata-iil-28868e5769d7a2444996a1f4e8e1e7d6">
      <rdf:RDF>
      <cc:Work
         rdf:about="">
        <dc:format>image/svg+xml</dc:format>
        <dc:type
           rdf:resource="http://purl.org/dc/dcmitype/StillImage" />
        <cc:license
           rdf:resource="http://creativecommons.org/licenses/by-sa/3.0/" />
        <dc:title>Littoraria spp. (Mangrove Periwinkle)</dc:title>
		<dc:date>2008-12-22</dc:date>
        <dc:creator>
			<cc:Agent>
				<dc:title>Kim Kraeer,Lucy Van Essen-Fishman</dc:title>
			</cc:Agent>
		</dc:creator>
		<dc:rights>
          <cc:Agent>
            <dc:title>Kim Kraeer,Lucy Van Essen-Fishman, Integration and Application Network</dc:title>
          </cc:Agent>
        </dc:rights>
        <dc:publisher>
          <cc:Agent>
            <dc:title>Integration and Application Network</dc:title>
          </cc:Agent>
        </dc:publisher>
		<dc:identifier>http://ian.umces.edu/imagelibrary/displayimage-4327.html</dc:identifier>
        <dc:source>http://ian.umces.edu/imagelibrary/displayimage-4327.html</dc:source>
        <dc:language>en-US</dc:language>
        <dc:subject>
          <rdf:Bag>
            <rdf:li>symbol,vector,illustration,mangrove,periwinkle,sea,snail,Indo-Pacific,Mollusca,Gastropoda,Orthogastropoda,Sorbeoconcha,Littorinidae,Littoraria,sp.</rdf:li>
          </rdf:Bag>
        </dc:subject>
        <dc:coverage></dc:coverage>
        <dc:description>Illustration of Littoraria spp. (Mangrove Periwinkle)</dc:description>
        <dc:contributor>
          <cc:Agent>
            <dc:title></dc:title>
          </cc:Agent>
        </dc:contributor>
      </cc:Work>
      <cc:License
         rdf:about="http://creativecommons.org/licenses/by-sa/3.0/">
        <cc:permits
           rdf:resource="http://creativecommons.org/ns#Reproduction" />
        <cc:permits
           rdf:resource="http://creativecommons.org/ns#Distribution" />
        <cc:requires
           rdf:resource="http://creativecommons.org/ns#Notice" />
        <cc:requires
           rdf:resource="http://creativecommons.org/ns#Attribution" />
        <cc:permits
           rdf:resource="http://creativecommons.org/ns#DerivativeWorks" />
        <cc:requires
           rdf:resource="http://creativecommons.org/ns#ShareAlike" />
      </cc:License>
    </rdf:RDF>
  </metadata>
	
 <defs></defs>
 <radialGradient id="ian_symbols_735d362814dbadd441271c73ce60c620" gradientUnits="userSpaceOnUse" cy="2.9146" cx="137.63" r="74.092">
  <stop stop-color="#968051" offset=".0056"/>
  <stop stop-color="#978051" offset=".0072"/>
  <stop stop-color="#A17C5B" offset=".0562"/>
  <stop stop-color="#6D5846" offset=".0955"/>
  <stop stop-color="#937B63" offset=".1517"/>
  <stop stop-color="#917962" offset=".2095"/>
  <stop stop-color="#89725C" offset=".253"/>
  <stop stop-color="#7D6752" offset=".2918"/>
  <stop stop-color="#6D5846" offset=".3258"/>
  <stop stop-color="#725D49" offset=".3338"/>
  <stop stop-color="#887058" offset=".3716"/>
  <stop stop-color="#997F62" offset=".4104"/>
  <stop stop-color="#A38969" offset=".4506"/>
  <stop stop-color="#A78C6B" offset=".4944"/>
  <stop stop-color="#7A604F" offset=".618"/>
  <stop stop-color="#8D6C4D" offset=".7191"/>
  <stop stop-color="#A47E5C" offset=".7682"/>
  <stop stop-color="#B38A67" offset=".8169"/>
  <stop stop-color="#B88F6B" offset=".8596"/>
  <stop stop-color="#816442" offset="1"/>
 </radialGradient>
 <path d="m113.91 78.587c-3.479-2.703-3.295-7.72-1.164-13.043 1.11-2.798 2.941-5.521 4.35-8.203 2.022-3.819 5.433-6.522 6.896-10.559 1.872-5.16 1.219-12.335 6.168-16.038l1.858-1.396v-5.127c.041-3.042.477-8.4 4.207-11.655 0-5.125-.408-7.284 1.852-10.245 4.302-5.511 8.884-.017 9.803 4.18 4.208 4.194 3.261 4.664 6.066 8.401 0 0 1.845 5.065 1.865 5.126.96 1.389 3.833 1.715 5.085 2.934 3.676 3.574 2.791 8.986 5.419 12.567 1.191 1.633 2.968 1.62 4.438 2.804 3.724 2.989 7.836 8.836 9.306 13.377 3.404 10.586-3.097 14.596-10.245 21.471-3.547 3.404-14.916 4.806-19.681 5.95-9.953 2.43-21.104 2.839-31.261 1.368-2.14-.312-3.77-.979-4.97-1.912z" fill="url(#ian_symbols_735d362814dbadd441271c73ce60c620)"/>
 <radialGradient id="ian_symbols_0c402e1f73c1c8145d16c10941e7b6d5" gradientUnits="userSpaceOnUse" cy="94.175" cx="158.14" r="83.635">
  <stop stop-color="#A78C6B" offset=".0955"/>
  <stop stop-color="#9D7D5C" offset=".2941"/>
  <stop stop-color="#8F6A49" offset=".618"/>
  <stop stop-color="#8A694B" offset=".68"/>
  <stop stop-color="#7A6852" offset=".927"/>
 </radialGradient>
 <path d="m181.92 57.477c-2.321.047-6.854 7.06-8.38 8.721-6.304 6.821-24.208 9.646-33.528 11.873-9.17 2.198-27.653-4.48-35.039 3.513 0 0-8.196 8.891-8.387 9.088-6.732 7.291-7.264 17.435-9.088 26.584 0 0-1.362 6.787-1.409 6.992-.953 4.827-2.131 13.567 3.499 14.698 7.455 1.484 18.306 3.854 25.883 2.791l30.083-4.187s31.418-10.027 32.82-10.483c5.14-1.641 10.701-5.882 15.263-8.7 10.096-6.27 11.688-19.919 9.973-30.491-1.286-7.645-13.05-17.523-17.461-24.447-1.52-2.423-.71-6.051-4.22-5.955z" fill="url(#ian_symbols_0c402e1f73c1c8145d16c10941e7b6d5)"/>
 <radialGradient id="ian_symbols_9c88337a02555d94e538a4ca0c5694c9" gradientUnits="userSpaceOnUse" cy="174.62" cx="165.84" r="125.38">
  <stop stop-color="#C7A17B" offset=".0955"/>
  <stop stop-color="#B48A66" offset=".2636"/>
  <stop stop-color="#A47754" offset=".4607"/>
  <stop stop-color="#9F714F" offset=".5386"/>
  <stop stop-color="#906242" offset=".8034"/>
  <stop stop-color="#886C4E" offset="1"/>
 </radialGradient>
 <path d="m84.203 136.17c7.1-1.858 16.277 3.002 23.561 2.069 17.23-2.191 34.999-1.919 51.677-7.243 9.701-3.111 18.871-8.067 28.089-12.342 8.673-8.687 13.043-12.329 16.079-24.48-.333 1.341 19.797 22.241 21.744 25.917 3.451 6.468 6.133 13.656 9.047 20.253 3.152 7.196 4.67 22.084 3.485 30.077-2.056 13.99-1.701 29.47-14.622 38.307-9.116 6.208-19.797 10.885-29.443 16.25l-21.689 6.991s-23.881 7.312-25.12 7.693c-17.55 5.364-35.768 7.883-53.869 10.565-4.234.626-26.992 7.346-31.533 2.744l-4.895-4.902s-3.479-16.692-3.5-16.788c-4.384-21.083 1.375-42.888 9.783-62.256 4.242-9.72 9.362-29.79 21.207-32.86z" fill="url(#ian_symbols_9c88337a02555d94e538a4ca0c5694c9)"/>
 <radialGradient id="ian_symbols_81c82d1b974dd0944911218624a522f9" gradientUnits="userSpaceOnUse" cy="327.12" cx="173.53" r="211.52">
  <stop stop-color="#A3704B" offset=".0281"/>
  <stop stop-color="#B17B53" offset=".2303"/>
  <stop stop-color="#B37D55" offset=".2454"/>
  <stop stop-color="#B88460" offset=".318"/>
  <stop stop-color="#BB8966" offset=".3926"/>
  <stop stop-color="#BC8B68" offset=".4719"/>
  <stop stop-color="#B17E5D" offset=".5779"/>
  <stop stop-color="#976242" offset=".7771"/>
  <stop stop-color="#966040" offset=".7865"/>
  <stop stop-color="#926446" offset=".8742"/>
  <stop stop-color="#876B54" offset="1"/>
 </radialGradient>
 <path d="m185.43 454.43l3.499-6.999 16.086-18.183 25.883-21.69 16.087-18.183c21.887-24.726 41.261-59.465 41.268-93.041 2.655-39.729-12.443-76.021-33.562-108.43l-6.304-7.699-10.498-9.79-3.485 13.289c-5.004 12.24-9.489 21.124-21.39 27.911-10.634 6.066-22.581 9.156-34.038 13.241-7.495 2.662-15.297 6.767-22.921 8.523-15.821 3.608-31.813 6.883-47.579 10.484 0 0-24.303 5.562-24.473 5.589-5.365 1.246-11.226 2.328-16.727 1.389-2.451-.416-8.333-4.18-10.559-2.778l-5.604 3.5-17.488 18.19-10.491 15.385c-4.888 11.812-9.612 23.657-13.983 35.673-2.056 11.817-6.686 23.315-8.401 35.045-.939 6.447.007 13.637 0 20.179-.006 15.024-1.661 31.519-.027 46.482 1.28 11.743 5.637 25.263 11.928 35.406l9.088 14.691 13.99 10.484c31.186 17.325 60.677 20.478 95.137 13.302l20.988-9.102s11.784-9.014 11.886-9.096c8.96-6.85 16.22-13.78 21.67-23.77z" fill="url(#ian_symbols_81c82d1b974dd0944911218624a522f9)"/>
 <path stroke="#966040" stroke-width="1.399" stroke-linecap="round" d="m39.225 272.56s187.48-4.214 214.75-77.648" fill="none"/>
 <path stroke="#966040" stroke-width="1.399" stroke-linecap="round" d="m34.33 281.65s174.18 6.297 224.54-79.051" fill="none"/>
 <path stroke="#966040" stroke-width="1.399" stroke-linecap="round" d="m51.11 260.66s165.1-1.402 198.68-71.358" fill="none"/>
 <path stroke="#966040" stroke-width="1.399" stroke-linecap="round" d="m263.08 209.59c-60.16 93.048-235.04 81.842-235.04 81.842" fill="none"/>
 <path stroke="#966040" stroke-width="1.399" stroke-linecap="round" d="m270.76 222.89c-60.15 93.03-249.72 81.14-249.72 81.14" fill="none"/>
 <path stroke="#966040" stroke-width="1.399" stroke-linecap="round" d="m275.66 234.07c-64.353 91.646-258.12 81.849-258.12 81.849" fill="none"/>
 <path stroke="#966040" stroke-width="1.399" stroke-linecap="round" d="m277.06 243.87c-64.353 91.638-263.02 82.55-263.02 82.55" fill="none"/>
 <path stroke="#955937" stroke-width="1.399" stroke-linecap="round" d="m279.16 252.97c-64.353 91.624-267.92 82.536-267.92 82.536" fill="none"/>
 <path stroke="#966040" stroke-width="1.399" stroke-linecap="round" d="m282.66 259.26c-64.36 91.64-275.61 83.93-275.61 83.93" fill="none"/>
 <path stroke="#966040" stroke-width="1.399" stroke-linecap="round" d="m284.06 292.84c-84.64 93.05-279.11 85.34-279.11 85.34" fill="none"/>
 <path stroke="#966040" stroke-width="1.399" stroke-linecap="round" d="m283.36 276.05c-64.36 91.63-279.11 83.93-279.11 83.93" fill="none"/>
 <path stroke="#955937" stroke-width="1.399" stroke-linecap="round" d="m4.247 405.46s228.05-16.781 279.82-100.73" fill="none"/>
 <path stroke="#955937" stroke-width="1.399" stroke-linecap="round" d="m4.948 413.16s225.95-16.093 277.71-100.05" fill="none"/>
 <path stroke="#955937" stroke-width="1.399" stroke-linecap="round" d="m3.553 422.26s225.93-16.087 277.7-100.04" fill="none"/>
 <path stroke="#955937" stroke-width="1.399" stroke-linecap="round" d="m7.051 430.65s218.25-13.309 270.01-97.24" fill="none"/>
 <path stroke="#8F6B4D" stroke-width="1.399" d="m214.11 110.96c-38.484 51.766-142.01 48.267-142.01 48.267" fill="none"/>
 <path stroke="#8F6B4D" stroke-width="1.399" d="m224.6 126.34c-38.477 51.78-157.39 47.579-157.39 47.579" fill="none"/>
 <path stroke="#8F6B4D" stroke-width="1.399" d="m228.8 132.65c-38.477 51.766-165.79 49.676-165.79 49.676" fill="none"/>
 <path stroke="#8F6B4D" stroke-width="1.399" d="m230.2 142.44c-38.477 51.772-170.69 55.272-170.69 55.272" fill="none"/>
 <path stroke="#8F6B4D" stroke-width="1.399" d="m232.98 152.23c-38.456 51.779-176.97 55.959-176.97 55.959" fill="none"/>
 <path stroke="#8F6B4D" stroke-width="1.399" d="m233.7 163.42c-38.477 51.758-177.69 56.66-177.69 56.66" fill="none"/>
 <path stroke="#8F6B4D" stroke-width="1.399" d="m234.4 174.61c-38.477 51.78-177.69 56.674-177.69 56.674" fill="none"/>
</svg>
