<?xml version="1.0" encoding="UTF-8" standalone="no"?>
<svg xmlns:rdf="http://www.w3.org/1999/02/22-rdf-syntax-ns#" xmlns="http://www.w3.org/2000/svg" height="427.144px" width="500px" xmlns:cc="http://creativecommons.org/ns#" xmlns:xlink="http://www.w3.org/1999/xlink" xmlns:dc="http://purl.org/dc/elements/1.1/">
<title>Sea anemone 1</title>
<desc xmlns:ian_image_library="http://ian.umces.edu/imagelibrary/">
      <ian_image_library:title>Sea anemone 1</ian_image_library:title>
      <ian_image_library:descr>Illustration for a sea anemone</ian_image_library:descr>
      <ian_image_library:scene>
		<ian_image_library:contains>symbol,vector,illustration,Sea,anemone,Cnidaria,Anthozoa,Hexacorallia,Actiniaria,Endocoelantheae</ian_image_library:contains>
        <ian_image_library:when>2005-03-05</ian_image_library:when>
	  </ian_image_library:scene>
   </desc>
    <metadata
		id="metadata-iil-2c470a3a2df5efc4ed4212796447a20d">
      <rdf:RDF>
      <cc:Work
         rdf:about="">
        <dc:format>image/svg+xml</dc:format>
        <dc:type
           rdf:resource="http://purl.org/dc/dcmitype/StillImage" />
        <cc:license
           rdf:resource="http://creativecommons.org/licenses/by-sa/3.0/" />
        <dc:title>Sea anemone 1</dc:title>
		<dc:date>2005-03-05</dc:date>
        <dc:creator>
			<cc:Agent>
				<dc:title>Tracey Saxby</dc:title>
			</cc:Agent>
		</dc:creator>
		<dc:rights>
          <cc:Agent>
            <dc:title>Tracey Saxby, Integration and Application Network</dc:title>
          </cc:Agent>
        </dc:rights>
        <dc:publisher>
          <cc:Agent>
            <dc:title>Integration and Application Network</dc:title>
          </cc:Agent>
        </dc:publisher>
		<dc:identifier>http://ian.umces.edu/imagelibrary/displayimage-3996.html</dc:identifier>
        <dc:source>http://ian.umces.edu/imagelibrary/displayimage-3996.html</dc:source>
        <dc:language>en-US</dc:language>
        <dc:subject>
          <rdf:Bag>
            <rdf:li>symbol,vector,illustration,Sea,anemone,Cnidaria,Anthozoa,Hexacorallia,Actiniaria,Endocoelantheae</rdf:li>
          </rdf:Bag>
        </dc:subject>
        <dc:coverage></dc:coverage>
        <dc:description>Illustration for a sea anemone</dc:description>
        <dc:contributor>
          <cc:Agent>
            <dc:title></dc:title>
          </cc:Agent>
        </dc:contributor>
      </cc:Work>
      <cc:License
         rdf:about="http://creativecommons.org/licenses/by-sa/3.0/">
        <cc:permits
           rdf:resource="http://creativecommons.org/ns#Reproduction" />
        <cc:permits
           rdf:resource="http://creativecommons.org/ns#Distribution" />
        <cc:requires
           rdf:resource="http://creativecommons.org/ns#Notice" />
        <cc:requires
           rdf:resource="http://creativecommons.org/ns#Attribution" />
        <cc:permits
           rdf:resource="http://creativecommons.org/ns#DerivativeWorks" />
        <cc:requires
           rdf:resource="http://creativecommons.org/ns#ShareAlike" />
      </cc:License>
    </rdf:RDF>
  </metadata>
	
<g id="ian_symbols_51695496c2757ed42d6ffed972d78e7d">
	<g>
			<linearGradient id="ian_symbols_8514f3120822433479a8447dd6861c25" gradientUnits="userSpaceOnUse" x1="2028.3174" y1="2080.8608" x2="2298.0378" y2="2080.8608" gradientTransform="matrix(0.1986 0 0 -0.1986 -135.9726 528.1541)">
			<stop  offset="0.0056" style="stop-color:#B5B69B"/>
			<stop  offset="0.9694" style="stop-color:#C9CEAB"/>
			<stop  offset="1" style="stop-color:#CACFAC"/>
		</linearGradient>
		<path fill="url(#ian_symbols_8514f3120822433479a8447dd6861c25)" d="M317.929,26.561c4.41-3.462,1.455-1.472,2.216,2.147c0.783,3.634-2.905,18.441-3.102,23.06
			c-0.17,4.658-12.428,68.081-12.428,68.081s-7.559,40.964-6.185,46.154c1.396,5.18,5.813,17.166,5.813,17.166
			s-7.686,23.444-11.454,21.775c-3.698-1.664-12.941-8.627-16.24-11.818c-3.311-3.225-11.736-20.987-9.243-30.175
			c2.45-9.179,16.909-47.326,21.935-56.973c5.03-9.602,11.547-35.163,15.191-42.244c3.656-7.101,8.396-28.58,8.396-28.58
			S313.519,30.032,317.929,26.561z"/>
			<linearGradient id="ian_symbols_2e4860905c864c9451eb46b4461d45e1" gradientUnits="userSpaceOnUse" x1="1478.5696" y1="2211.7407" x2="1844.9252" y2="2211.7407" gradientTransform="matrix(0.1986 0 0 -0.1986 -135.9726 528.1541)">
			<stop  offset="0.0056" style="stop-color:#B5B69B"/>
			<stop  offset="1" style="stop-color:#CACFAC"/>
		</linearGradient>
		<path fill="url(#ian_symbols_2e4860905c864c9451eb46b4461d45e1)" d="M158.054,11.547c-1.516-3.732,1.822-1.384,3.861,0.419c1.997,1.773,18.576,22.661,20.093,27.033
			c1.559,4.432,18.522,43.82,22.009,48.719c3.503,4.934,22.727,38.448,22.727,38.448l3.686,42.077l-17.628-5.397
			c0,0-35.555-95.381-36.68-103.628c-1.11-8.277-7.699-22.617-9.299-28.304C165.239,25.266,159.517,15.304,158.054,11.547z"/>
			<linearGradient id="ian_symbols_ff07d7fa1cfb188471ef919d8be0bb08" gradientUnits="userSpaceOnUse" x1="1777.3542" y1="2125.9646" x2="2197.2366" y2="2125.9646" gradientTransform="matrix(0.1986 0 0 -0.1986 -135.9726 528.1541)">
			<stop  offset="0.0056" style="stop-color:#B5B69B"/>
			<stop  offset="1" style="stop-color:#CACFAC"/>
		</linearGradient>
		<path fill="url(#ian_symbols_ff07d7fa1cfb188471ef919d8be0bb08)" d="M297.597,22.036c5.059-2.403,1.721-1.128,1.721,2.575c-0.061,3.693-6.785,17.387-7.977,21.873
			c-1.199,4.476-26.765,63.821-26.765,63.821s-16.159,38.359-15.937,43.736c0.239,5.362,1.984,18.022,1.984,18.022
			s-12.568,21.247-15.861,18.805c-3.277-2.403-10.808-11.227-13.342-15.034c-2.546-3.846-6.928-23.015-2.546-31.445
			c4.38-8.445,26.669-42.633,33.659-50.94c6.96-8.307,18.813-31.864,23.919-37.98c5.101-6.15,14.332-26.127,14.332-26.127
			S292.552,24.488,297.597,22.036z"/>
			<linearGradient id="ian_symbols_d6de75fd4d1057240116a113c1509fc2" gradientUnits="userSpaceOnUse" x1="871.9241" y1="1948.9794" x2="3202.2791" y2="1948.9794" gradientTransform="matrix(0.1986 0 0 -0.1986 -135.9726 528.1541)">
			<stop  offset="0" style="stop-color:#9AB498"/>
			<stop  offset="1" style="stop-color:#C3CEC0"/>
		</linearGradient>
		<path fill="url(#ian_symbols_d6de75fd4d1057240116a113c1509fc2)" d="M499.04,281.896c-2.94,1.709-20.873-5.037-26.012-5.215c-5.16-0.197-47.99,2.856-54.897,2.014
			c-6.896-0.817-37.391-0.694-42.557-0.866c-5.143-0.197-43.743,1.413-43.743,1.413l-5.424-34.321l-16.769-47.144l-25.736-18.244
			l-42.645-12.551l-43.214,13.472l-29.161,29.358l-19.869,34.661c0,0-30.88-17.594-43.138-22.877
			c-12.288-5.338-33.723-23.262-42.626-29.884c-8.878-6.603-11.055-6.776-16.777-9.908c-5.712-3.151-8.73-3.191-9.272-6.16
			c-0.604-2.94,25.539,4.885,30.296,5.55c4.751,0.675,36.766,14.201,51.587,19.17c14.805,4.978,28.161,15.319,28.161,15.319
			s-1.852-12.291-6.274-15.181c-4.429-2.861-28.621-24.788-35.294-29.535c-6.643-4.742-21.824-17.441-27.225-22.794
			c-5.407-5.372-13.805-19.302-10.306-18.54c3.496,0.768,9.179,12.625,13.984,14.147c4.774,1.507,11.36,4.59,14.445,6.308
			c3.075,1.768,7.506,3.969,13.29,7.982c5.766,4.003,13.98,8.952,20.538,11.981c6.581,3.013,30.741,20.888,30.741,20.888
			s18.591-34.907,16.53-42.451c-2.093-7.49-3.006-19.051-7.497-22.779c-4.441-3.727-13.915-13.315-18.766-16.58
			c-4.904-3.245-13.47-12.084-18.239-12.773c-4.749-0.679-3.629-2.186-3.629-2.186s2.127-3.21,6.34-4.653
			c4.198-1.418,16.057,3.521,23.973,7.652c7.923,4.181,19.566,14.752,26.298,21.213c6.746,6.51,28.483,40.397,28.483,40.397
			s2.967-28.934,2.24-36.207c-0.778-7.253-4.766-28.781-7.625-34.469c-2.831-5.673-8.831-14.856-11.636-19.662
			c-2.817-4.85-3.961-11.606-4.944-14.073c-0.967-2.472,2.371-4.658,8.162-0.63c5.742,3.988,19.687,17.289,24.665,23.124
			c4.99,5.85,12.862,18.214,17.257,29.363c4.355,11.064,12.062,39.043,12.062,39.043s-5.914-82.705-3.745-91.638
			c2.152-8.967,10.924-33.907,8.418-40.924C257.022,5.648,254.183-0.04,257.212,0c2.987,0.02,7.017,3.392,8.531,7.938
			c1.484,4.594,2.065,17.5,1.484,23.626c-0.556,6.15,0.067,19.913-0.522,26.029c-0.576,6.151,5.559,27.821,5.552,36.907
			c-0.025,9.085,6.312,44.194,5.236,48.237c-1.117,4.003-0.542,6.973-0.815,10.917c-0.229,3.92,1.505,13.291,4.065,12.975
			c2.573-0.345,6.089-6.963,8.513-10.73c2.403-3.787,16.186-31.111,17.146-37.739c1.009-6.628,0.436-19.519,4.065-23.931
			c3.69-4.343,9.127-16.353,11.451-21.824c2.337-5.515,13.544-32.528,13.544-32.528s2.243,1.891,2.053,6.657
			c-0.229,4.806-2.689,16.796-4.53,23.552c-1.841,6.726-2.566,19.361-4.89,24.847c-2.302,5.5-6.015,18.116-8.709,25.817
			c-2.6,7.736-9.941,44.603-9.941,44.603s6.677-4.353,9.114-7.273c2.452-2.92,5.404-12.813,8.228-17.052
			c2.846-4.274,11.318-15.358,14.549-20.12c3.223-4.762,9.291-22.011,11.655-26.63c2.376-4.653,7.558-13.541,10.464-16.092
			c2.863-2.55,7.753-8.381,10.402-6.997c2.654,1.389,3.493,1.271,4.023,3.354c0.534,2.107-4.274,0.576-7.896,5.83
			c-3.666,5.215-4.579,12.714-6.877,19.081c-2.275,6.367-6.411,19.416-6.94,26.457c-0.534,6.967-7.239,19.524-10.769,27.368
			c-3.528,7.8-15.474,28.412-15.474,28.412s21.631-15.807,25.315-20.204c3.644-4.377,16.422-16.033,18.448-19.302
			c1.95-3.304,4.286-8.809,11.446-11.877c7.152-3.122,13.428-6.987,17.133-10.513c3.718-3.501,8.696-16.708,11.323-15.319
			c2.662,1.384-5.335,14.566-7.664,20.046c-2.324,5.5-8.236,8.011-13.457,15.191c-5.288,7.179-12.773,21.592-16.742,28.161
			c-4.001,6.584-10.543,14.379-17.567,20.071c-7.056,5.678-21.056,15.334-21.056,15.334l1.438,6.278c0,0,9.326-12.034,17.69-16.619
			c8.356-4.535,22.51-11.306,30.054-15.752c7.504-4.451,21.841-19.81,25.106-23.675c3.25-3.905,5.222-11.793,9.203-18.372
			c3.974-6.593,4.808-16.673,7.056-14.772c2.214,1.881,2.228,10.956,2.058,17.451c-0.121,6.51-7.64,20.075-14.112,28.722
			c-6.487,8.607-18.549,16.703-24.773,22.276c-6.177,5.614-33.511,27.374-33.511,27.374s27.139-7.913,33.464-10.041
			c6.323-2.132,15.122-7.184,18.005-9.73c2.893-2.551,2.255-7.239,4.87-6.692c2.565,0.532,4.348,1.147,3.772,8.159
			c-0.5,6.973-5.532,10.222-9.962,16.461c-4.437,6.19-12.047,8.932-18.278,13.615c-6.217,4.722-22.151,12.911-22.151,12.911
			l6.596,12.965c0,0,17.621-0.148,26.371,3.86c8.778,4.042,47.19,8.115,52.804,8.657c5.614,0.542,23.345,3.846,25.559,4.87
			c2.186,0.975,12.143,2.703,15.656,3.964C497.484,276.485,502,280.193,499.04,281.896z"/>
			<linearGradient id="ian_symbols_b8a9fd452db0f0d4810ed1b2c4884558" gradientUnits="userSpaceOnUse" x1="1479.5406" y1="2000.634" x2="1889.2704" y2="2000.634" gradientTransform="matrix(0.1986 0 0 -0.1986 -135.9726 528.1541)">
			<stop  offset="0.0056" style="stop-color:#B5B69B"/>
			<stop  offset="1" style="stop-color:#CACFAC"/>
		</linearGradient>
		<path fill="url(#ian_symbols_b8a9fd452db0f0d4810ed1b2c4884558)" d="M232.82,198.861c6.726-1.32,6.726-30.904,6.224-35.576c-0.507-4.663-25.288-45.169-29.326-54.653
			c-4.023-9.508-15.304-21.193-22.673-30.623c-7.361-9.39-19.903-14.763-23.744-15.176c-3.834-0.433-4.808,1.536-5.331,5.126
			c-0.514,3.624,1.002,5.2,1.002,5.2s0.84-3.88,7.566-1.083c6.669,2.812,11.707,13.369,15.4,20.155
			c3.641,6.746,12.332,28.22,13.849,33.942c1.522,5.732,10.031,18.131,10.031,18.131S226.103,200.176,232.82,198.861z"/>
			<linearGradient id="ian_symbols_ea07393ed66260349dbe08c57c59e618" gradientUnits="userSpaceOnUse" x1="-11159.625" y1="2811.5386" x2="-10862.3281" y2="2722.0212" gradientTransform="matrix(0.378 0.5683 0.5683 -0.378 2842.4612 7645.5684)">
			<stop  offset="0.0225" style="stop-color:#C28577"/>
			<stop  offset="0.4663" style="stop-color:#EAB98A"/>
			<stop  offset="0.8146" style="stop-color:#F2DBB7"/>
			<stop  offset="0.9719" style="stop-color:#F2E5C4"/>
		</linearGradient>
		<path fill="url(#ian_symbols_ea07393ed66260349dbe08c57c59e618)" d="M353.848,289.544c0,0-2.125,1.295-6.832,4.417c-4.72,3.112,1.857,7.007,0,12.364
			c-1.895,5.318-0.081,10.754,1.763,17.648c1.896,6.908,1.138,3.033,1.765,20.312c0.606,17.254-2.058,7.883-1.002,22.803
			c1.071,14.95,20.115,37.172-0.039,53.107c-20.147,15.92-124.172,0.596-147.645-7.435c-23.478-8.041-39.223-3.841-48.936-16.2
			c-9.713-12.374,7.795-38.635,8.669-50.989c0.886-12.355,2.728-15.407,0.968-29.54c-1.768-14.127-4.429-17.589-5.296-28.176
			c-0.886-10.596,6.096-27.447,6.096-27.447l46.661-3.9l64.932,1.049l43.33,12L353.848,289.544z"/>
			<linearGradient id="ian_symbols_255e743e601bbb14497e2de3aa523d80" gradientUnits="userSpaceOnUse" x1="2360.635" y1="1075.9381" x2="2987.3508" y2="1075.9381" gradientTransform="matrix(0.1986 0 0 -0.1986 -135.9726 528.1541)">
			<stop  offset="0" style="stop-color:#9AB498"/>
			<stop  offset="1" style="stop-color:#C3CEC0"/>
		</linearGradient>
		<path fill="url(#ian_symbols_255e743e601bbb14497e2de3aa523d80)" d="M456.782,393.546c2.023,0.867-1.985-44.908-7.362-61.867
			c-5.419-16.949-31.667-55.288-44.861-64.112c-13.226-8.854-50.826-30.062-54.579-31.249c-3.695-1.191-12.357-2.078-14.213,2.861
			c-1.891,4.895-5.106,7.795-0.711,12.197c4.402,4.407,69.31,41.284,79.96,51.787c10.668,10.523,18.992,21.907,22.702,34.134
			c3.698,12.177,12.99,31.648,12.48,38.635C449.671,382.871,454.765,392.694,456.782,393.546z"/>
			<linearGradient id="ian_symbols_818ecdceea4bfe0425d8e3cd70672166" gradientUnits="userSpaceOnUse" x1="684.6556" y1="1438.2031" x2="1602.0015" y2="1438.2031" gradientTransform="matrix(0.1986 0 0 -0.1986 -135.9726 528.1541)">
			<stop  offset="0" style="stop-color:#9AB498"/>
			<stop  offset="1" style="stop-color:#C3CEC0"/>
		</linearGradient>
		<path fill="url(#ian_symbols_818ecdceea4bfe0425d8e3cd70672166)" d="M0.088,270.571c-1.9-0.744,27.317-31.18,40.818-39.812c13.524-8.588,53.72-18.544,67.897-15.964
			c14.23,2.59,59.552,8.79,62.815,10.459c3.272,1.664,11.934,10.784,10.383,15.6c-1.559,4.815-10.348,9.247-15.962,9.454
			c-5.562,0.192-71.555-17.21-84.968-16.85c-13.431,0.413-25.721,2.989-35.338,9.316c-9.605,6.298-27.265,14.112-30.931,19.51
			C11.146,267.661,1.979,271.344,0.088,270.571z"/>
			<linearGradient id="ian_symbols_3883f4a5cb6222549911daa20b34ae51" gradientUnits="userSpaceOnUse" x1="974.8342" y1="1072.0688" x2="1700.3185" y2="1072.0688" gradientTransform="matrix(0.1986 0 0 -0.1986 -135.9726 528.1541)">
			<stop  offset="0" style="stop-color:#9AB498"/>
			<stop  offset="1" style="stop-color:#C3CEC0"/>
		</linearGradient>
		<path fill="url(#ian_symbols_3883f4a5cb6222549911daa20b34ae51)" d="M57.915,389.69c-2.164,0.675,8.43-45.134,16.24-61.817c7.782-16.654,39.27-53.141,53.623-60.956
			c14.332-7.829,56.404-23.749,60.257-24.69c3.861-0.871,10.712-3.481,11.885,1.63c1.105,5.106,3.914,8.243-1.076,12.34
			c-4.986,4.117-74.51,36.015-86.576,45.731c-12.067,9.75-21.903,20.528-27.331,32.568c-5.459,11.996-17.461,30.889-17.981,37.941
			C66.488,379.473,60.06,388.967,57.915,389.69z"/>
			<linearGradient id="ian_symbols_b7cd56f3909c5fe4010e8c8c2e04eaad" gradientUnits="userSpaceOnUse" x1="2311.6299" y1="1061.3507" x2="2909.1074" y2="1061.3507" gradientTransform="matrix(0.1986 0 0 -0.1986 -135.9726 528.1541)">
			<stop  offset="0" style="stop-color:#9AB498"/>
			<stop  offset="1" style="stop-color:#C3CEC0"/>
		</linearGradient>
		<path fill="url(#ian_symbols_b7cd56f3909c5fe4010e8c8c2e04eaad)" d="M441.524,381.728c1.788,0.601-6.305-38.073-12.589-52.195
			c-6.266-14.152-32.061-45.381-43.967-52.235c-11.939-6.835-45.408-22.952-48.653-23.779c-3.265-0.852-10.543-1.128-11.552,3.122
			c-1.044,4.279-3.442,6.884,0.685,10.385c4.139,3.545,61.945,31.593,71.934,40.018c9.969,8.4,18.057,17.648,22.397,27.811
			c4.356,10.164,14.128,26.265,14.413,32.209C434.475,372.973,439.722,381.098,441.524,381.728z"/>
			<linearGradient id="ian_symbols_7e8434c513f65cc48dbc16d09d85bf6d" gradientUnits="userSpaceOnUse" x1="2456.5808" y1="1388.9102" x2="3145.5049" y2="1388.9102" gradientTransform="matrix(0.1986 0 0 -0.1986 -135.9726 528.1541)">
			<stop  offset="0.0393" style="stop-color:#B9BEA3"/>
			<stop  offset="0.9101" style="stop-color:#C1CDB3"/>
		</linearGradient>
		<path fill="url(#ian_symbols_7e8434c513f65cc48dbc16d09d85bf6d)" d="M488.665,271.211c1.423-0.552-23.059-21.011-34.117-26.797
			c-11.047-5.815-43.032-12.497-53.976-10.779c-10.963,1.778-40.188,8.607-42.68,9.72c-2.457,1.123-7.199,4.678-5.702,7.923
			c1.443,3.27,1.28,6.131,5.628,6.279c4.375,0.138,54.997-11.552,65.488-11.331c10.537,0.261,20.255,1.989,28.139,6.264
			c7.841,4.22,22.097,9.489,25.265,13.128C479.854,269.232,487.223,271.698,488.665,271.211z"/>
			<linearGradient id="ian_symbols_2bb287b423c3f9d4a1b3eb9a7847a527" gradientUnits="userSpaceOnUse" x1="2350.1663" y1="1484.0795" x2="3176.4788" y2="1484.0795" gradientTransform="matrix(0.1986 0 0 -0.1986 -135.9726 528.1541)">
			<stop  offset="0.0393" style="stop-color:#B9BEA3"/>
			<stop  offset="0.9101" style="stop-color:#C1CDB3"/>
		</linearGradient>
		<path fill="url(#ian_symbols_2bb287b423c3f9d4a1b3eb9a7847a527)" d="M494.82,244.271c1.578-1.063-30.766-23.72-44.716-29.131c-13.98-5.436-52.622-7.071-65.178-2.023
			c-12.522,5.047-45.583,21.578-48.247,23.773c-2.689,2.137-7.605,8.213-5.32,12.35c2.334,4.186,2.578,8.277,7.726,7.392
			c5.173-0.847,62.374-29.313,74.753-31.48c12.332-2.172,24.077-2.073,34.011,1.985c9.993,4.003,27.61,7.922,31.95,12.231
			C484.155,243.646,493.23,245.305,494.82,244.271z"/>
			<linearGradient id="ian_symbols_2515061b9c960304fd02f59a21472fdb" gradientUnits="userSpaceOnUse" x1="1226.856" y1="1883.1445" x2="1741.7361" y2="1883.1445" gradientTransform="matrix(0.1986 0 0 -0.1986 -135.9726 528.1541)">
			<stop  offset="0.0056" style="stop-color:#B5B69B"/>
			<stop  offset="1" style="stop-color:#CACFAC"/>
		</linearGradient>
		<path fill="url(#ian_symbols_2515061b9c960304fd02f59a21472fdb)" d="M108.345,84.129c-2.198-3.378,1.571-1.689,3.888-0.315c2.314,1.379,22.607,18.628,24.963,22.676
			c2.361,3.999,26.608,39.408,30.982,43.559c4.361,4.156,24.732,27.407,29.663,33.331c4.99,5.899,13.945,36.768,11.756,40.58
			c-2.189,3.791-13.33,2.418-18.347-1.94c-5.018-4.294-53.249-86.709-55.96-94.583c-2.681-7.913-11.909-20.73-14.58-25.975
			C118.056,96.183,110.554,87.536,108.345,84.129z"/>
			<linearGradient id="ian_symbols_dc55d29cb8d8dad475367eea13716714" gradientUnits="userSpaceOnUse" x1="1516.8201" y1="1841.5057" x2="1852.9141" y2="1841.5057" gradientTransform="matrix(0.1986 0 0 -0.1986 -135.9726 528.1541)">
			<stop  offset="0" style="stop-color:#D1D1A8"/>
			<stop  offset="1" style="stop-color:#B6CFA2"/>
		</linearGradient>
		<path fill="url(#ian_symbols_dc55d29cb8d8dad475367eea13716714)" d="M227.315,217.262c8.066-1.561,3.25-13.945,3.508-19.288c0.31-5.357-9.09-27.289-12.042-38.162
			c-2.925-10.863-14.012-24.261-20.859-34.986c-6.84-10.724-20.534-16.801-24.916-17.259c-4.434-0.478-5.926,1.797-7.224,5.914
			c-1.273,4.146,0.214,5.958,0.214,5.958s1.721-4.447,9.024-1.285c7.305,3.161,11.261,15.279,14.294,22.99
			c3.021,7.756,9.23,32.317,9.942,38.881c0.704,6.574,8.391,20.735,8.391,20.735S219.2,218.818,227.315,217.262z"/>
			<linearGradient id="ian_symbols_4b8357b40d6dc2e4612ff4392467b288" gradientUnits="userSpaceOnUse" x1="1507.9377" y1="1679.6538" x2="1821.0752" y2="1679.6538" gradientTransform="matrix(0.1986 0 0 -0.1986 -135.9726 528.1541)">
			<stop  offset="0.0056" style="stop-color:#DCDDBE"/>
			<stop  offset="1" style="stop-color:#CACFAC"/>
		</linearGradient>
		<path fill="url(#ian_symbols_4b8357b40d6dc2e4612ff4392467b288)" d="M212.801,183.916c-3.698-8.943-10.809-24.232-18.889-30.574
			c-8.125-6.357-20.94-15.353-22.74-17.54c-1.802-2.147-6.054-10.237-7.335-9.223c-1.295,1.044,1.482,9.567,3.087,12.428
			c1.618,2.856,14.24,13.945,18.124,22.163c3.872,8.194,8.917,14.777,10.232,22.356c1.342,7.593,1.869,23.404,3.053,29.048
			c1.191,5.653,1.647,33.203,4.503,40.85c2.9,7.638,18.99,13.093,22.208,5.791c3.238-7.283-6.672-55.593-7.374-59.41
			C216.999,196.024,216.492,192.853,212.801,183.916z"/>
			<linearGradient id="ian_symbols_22516530c5bec59449a7fad9f7fc6223" gradientUnits="userSpaceOnUse" x1="1053.6888" y1="1714.5627" x2="1482.8149" y2="1714.5627" gradientTransform="matrix(0.1986 0 0 -0.1986 -135.9726 528.1541)">
			<stop  offset="0.0056" style="stop-color:#B5B69B"/>
			<stop  offset="1" style="stop-color:#CACFAC"/>
		</linearGradient>
		<path fill="url(#ian_symbols_22516530c5bec59449a7fad9f7fc6223)" d="M156.949,210.551c-5.397,2.861-13.497-7.43-18.569-10.39c-5.025-2.974-10.838-7.957-14.26-9.853
			c-3.41-1.812-13.207-11.05-15.287-12.369c-2.066-1.275-5.5-4.412-9.225-4.264c-3.735,0.128-9.267,2.098-12.101,2.615
			c-2.871,0.527-8.674,0.655-10.636,0.271c-1.916-0.394-3.282,0.315-3.572-1.497c-0.271-1.822,6.271-2.501,9.917-4.831
			c3.597-2.364,9.885-4.85,15.57-5.889c5.697-1.044,22.243,5.87,25.194,7.529c2.969,1.694,18.295,10.227,21.125,12.271
			c2.812,2.024,6.97,7.179,6.97,7.179S162.341,207.67,156.949,210.551z"/>
			<linearGradient id="ian_symbols_67a515a49aa88cc4d508d0dd5044f80b" gradientUnits="userSpaceOnUse" x1="2047.2826" y1="1841.5537" x2="2261.0061" y2="1841.5537" gradientTransform="matrix(0.1986 0 0 -0.1986 -135.9726 528.1541)">
			<stop  offset="0.0393" style="stop-color:#B9BEA3"/>
			<stop  offset="0.9101" style="stop-color:#C1CDB3"/>
		</linearGradient>
		<path fill="url(#ian_symbols_67a515a49aa88cc4d508d0dd5044f80b)" d="M307.167,73.807c1.93,0.891,0.8,14.497,2.228,16.432c1.396,1.955,4.119,18.604,3.604,22.233
			c-0.529,3.605-0.204,21.725-0.746,25.345c-0.48,3.595,0.576,18.864-0.224,25.586c-0.798,6.677-10.733,44.509-10.53,49.079
			c0.209,4.59-0.394,14.6-1.396,19.268c-0.975,4.663-2.553,19.367-2.553,19.367l-26.932-21.228c0,0,23.995-72.616,24.773-79.293
			c0.785-6.737,1.61-15.984,3.114-22.971c1.509-7.012,4.469-17.219,4.043-22.543c-0.426-5.347-2.765-11.547-1.261-18.599
			C302.804,79.524,305.251,72.922,307.167,73.807z"/>
			<linearGradient id="ian_symbols_355259d1a7204104ad1a6e3058641335" gradientUnits="userSpaceOnUse" x1="1960.0676" y1="1970.2599" x2="2162.2585" y2="1970.2599" gradientTransform="matrix(0.1986 0 0 -0.1986 -135.9726 528.1541)">
			<stop  offset="0.0393" style="stop-color:#B9BEA3"/>
			<stop  offset="0.9101" style="stop-color:#C1CDB3"/>
		</linearGradient>
		<path fill="url(#ian_symbols_355259d1a7204104ad1a6e3058641335)" d="M267.407,198.378c-7.883,0.606-11.98-20.086-13.62-24.926c-1.64-4.865,1.369-27.349,1.261-38.068
			c-0.096-10.735,6.697-25.797,10.205-37.364c3.548-11.572,14.6-20.622,18.507-22.129c3.944-1.521,5.907,0.172,8.142,3.634
			c2.248,3.457,1.388,5.505,1.388,5.505s-2.743-3.663-8.649,1.118c-5.926,4.737-6.446,16.831-7.238,24.714
			c-0.815,7.834-0.136,31.982,0.866,38.167c1.042,6.214,1.495,25.404,1.495,25.404S275.256,197.797,267.407,198.378z"/>
			<linearGradient id="ian_symbols_3cc64a7de40201c4f9c59c784575a7d9" gradientUnits="userSpaceOnUse" x1="1843.9069" y1="2104.4688" x2="1974.4739" y2="2104.4688" gradientTransform="matrix(0.1986 0 0 -0.1986 -135.9726 528.1541)">
			<stop  offset="0.0056" style="stop-color:#B5B69B"/>
			<stop  offset="1" style="stop-color:#CACFAC"/>
		</linearGradient>
		<path fill="url(#ian_symbols_3cc64a7de40201c4f9c59c784575a7d9)" d="M236.979,35.936c-1.551,0.621-1.118,12.05-2.297,13.601c-1.191,1.502-3.873,15.24-3.607,18.273
			c0.318,3.058-0.448,18.17-0.158,21.208c0.293,3.063-1.022,15.713-0.608,21.361c0.468,5.628,7.234,37.827,6.96,41.643
			c-0.325,3.801-0.128,12.211,0.556,16.171c0.623,3.944,1.463,16.328,1.463,16.328l16.87-18.82c0,0-6.643-49.03-7.076-54.697
			c-0.448-5.594-5.811-23.7-6.801-29.624c-1.007-5.948-3.075-14.634-2.545-19.071c0.487-4.417,2.545-9.459,1.538-15.398
			C240.309,40.939,238.502,35.331,236.979,35.936z"/>
			<linearGradient id="ian_symbols_a596775cba31e5b46546318749fbaab7" gradientUnits="userSpaceOnUse" x1="1843.6582" y1="1774.8022" x2="2008.688" y2="1774.8022" gradientTransform="matrix(0.1986 0 0 -0.1986 -135.9726 528.1541)">
			<stop  offset="0" style="stop-color:#D1D1A8"/>
			<stop  offset="1" style="stop-color:#B6CFA2"/>
		</linearGradient>
		<path fill="url(#ian_symbols_a596775cba31e5b46546318749fbaab7)" d="M237.833,249.722c7.686,2.94,20.918-30.145,23.981-34.547c3.055-4.407-3.806-32.839-0.549-43.643
			c3.245-10.784,0.84-27.993,0.704-40.698c-0.162-12.748-8.573-25.118-12.096-27.836c-3.494-2.713-5.938-1.585-9.211,1.266
			c-3.264,2.807-2.966,5.16-2.966,5.16s3.813-2.895,8.324,3.664c4.55,6.544,1.532,18.904,0.035,27.073
			c-1.517,8.159-9.203,32.287-12.027,38.275c-2.858,5.968-3.848,22.011-3.848,22.011S230.104,246.797,237.833,249.722z"/>
			<linearGradient id="ian_symbols_148c1a3b32539aa43561484766780402" gradientUnits="userSpaceOnUse" x1="2055.3513" y1="1684.6365" x2="2416.1912" y2="1684.6365" gradientTransform="matrix(0.1986 0 0 -0.1986 -135.9726 528.1541)">
			<stop  offset="0" style="stop-color:#B9BEA3"/>
			<stop  offset="0.1343" style="stop-color:#BDC6AC"/>
			<stop  offset="0.3396" style="stop-color:#C0CCB1"/>
			<stop  offset="0.9101" style="stop-color:#C1CDB3"/>
		</linearGradient>
		<path fill="url(#ian_symbols_148c1a3b32539aa43561484766780402)" d="M343.116,128.288c-1.659-0.216-6.881,9.962-8.649,10.74c-1.803,0.709-10.878,11.385-12.123,14.162
			c-1.219,2.822-9.339,15.556-10.572,18.401c-1.231,2.802-8.581,13.192-10.951,18.323c-2.423,5.116-12.263,36.488-14.398,39.694
			c-2.12,3.161-6.094,10.548-7.47,14.358c-1.389,3.758-6.731,14.92-6.731,14.92l23.929-8.115c0,0,18.948-57.391,21.331-62.507
			c2.398-5.131,5.907-12.089,7.965-17.771c2.066-5.663,4.496-14.251,7.091-17.885c2.634-3.59,6.901-6.978,8.952-12.625
			C343.534,134.306,344.767,128.495,343.116,128.288z"/>
		<linearGradient id="ian_symbols_f062380aba4bcbd461fedc8a15673b5e" gradientUnits="userSpaceOnUse" x1="210.6917" y1="241.1954" x2="253.2986" y2="241.1954">
			<stop  offset="0.0056" style="stop-color:#B5B69B"/>
			<stop  offset="1" style="stop-color:#CACFAC"/>
		</linearGradient>
		<path fill="url(#ian_symbols_f062380aba4bcbd461fedc8a15673b5e)" d="M211.142,256.202c-1.78-8.174,2.154-23.237,4.279-29.102c2.068-5.899,3.333-9.336,7.871-14.447
			c4.518-5.131,8.066-4.702,12.507-4.683c4.444,0.015,10.124-3.226,12.36-1.148c2.221,2.103,6.096,4.486,4.924,9.637
			c-1.138,5.116-3.304-3.142-7.91,2.373c-4.543,5.525-8.918-2.167-9.915,4.752c-0.968,6.928-2.26,8.336,2.061,17.933
			c4.353,9.572,1.056,30.116-5.602,32.736c-6.677,2.605-12.313,3.23-14.587-1.512C214.84,268.025,212.909,264.371,211.142,256.202z"
			/>
			<linearGradient id="ian_symbols_25f63e4f0a4fd074c5f889f5165cbbc1" gradientUnits="userSpaceOnUse" x1="2289.2244" y1="1605.1682" x2="2636.8965" y2="1605.1682" gradientTransform="matrix(0.1986 0 0 -0.1986 -135.9726 528.1541)">
			<stop  offset="0.0393" style="stop-color:#B9BEA3"/>
			<stop  offset="0.9101" style="stop-color:#C1CDB3"/>
		</linearGradient>
		<path fill="url(#ian_symbols_25f63e4f0a4fd074c5f889f5165cbbc1)" d="M329.971,210.64c5.261-8.085,14.957-21.829,23.877-26.659
			c8.955-4.841,22.804-11.478,24.965-13.291c2.105-1.777,7.726-8.991,8.755-7.76c0.997,1.201-3.331,9.06-5.389,11.611
			c-2.108,2.526-16.193,11.217-21.496,18.583c-5.338,7.317-11.353,12.897-14.15,20.115c-2.775,7.184-6.404,22.518-8.624,27.846
			c-2.278,5.298-7.485,14.861-7.485,14.861l-11.756-13.024c0,0,2.117-13.965,3.521-17.579
			C323.589,221.773,324.694,218.739,329.971,210.64z"/>
			<linearGradient id="ian_symbols_85344ecbef23bf2415392c4d2e006006" gradientUnits="userSpaceOnUse" x1="866.433" y1="1602.1074" x2="1587.4905" y2="1602.1074" gradientTransform="matrix(0.1986 0 0 -0.1986 -135.9726 528.1541)">
			<stop  offset="0" style="stop-color:#D1D1A8"/>
			<stop  offset="1" style="stop-color:#B6CFA2"/>
		</linearGradient>
		<path fill="url(#ian_symbols_85344ecbef23bf2415392c4d2e006006)" d="M178.859,227.312c3.528-8.218-14.974-22.174-19.802-25.512
			c-4.882-3.348-31.372-7.504-43.458-11.109c-12.047-3.614-31.534-1.344-45.903-1.369c-14.344,0-28.584,8.82-31.746,12.497
			c-3.141,3.718-1.96,6.382,1.147,9.903c3.12,3.536,5.761,3.245,5.761,3.245s-3.164-4.092,4.351-8.854
			c7.544-4.747,21.373-1.344,30.535,0.369c9.201,1.753,36.17,10.306,42.783,13.448c6.695,3.127,27.849,8.681,27.849,8.681
			S175.316,235.472,178.859,227.312z"/>
			<linearGradient id="ian_symbols_33d77c7181bfd3e49181e9e06e8ea6d0" gradientUnits="userSpaceOnUse" x1="2138.1829" y1="1627.1442" x2="2391.2681" y2="1627.1442" gradientTransform="matrix(0.1986 0 0 -0.1986 -135.9726 528.1541)">
			<stop  offset="0.0056" style="stop-color:#DCDDBE"/>
			<stop  offset="1" style="stop-color:#CACFAC"/>
		</linearGradient>
		<path fill="url(#ian_symbols_33d77c7181bfd3e49181e9e06e8ea6d0)" d="M321.905,160.532c-1.62,0.817-0.576,4.461-1.497,4.461c-2.024-0.108-3.028-7.593,0.256-9.981
			c3.259-2.383,7.593-2.817,11.751,1.497c4.139,4.314,7.396,16.545,6.305,21.238c-1.118,4.702-13.573,20.248-14.494,25.32
			c-0.935,5.037-2.75,34.735-5.559,39.856c-2.77,5.121-8.932,12.995-11.705,13.689c-2.743,0.699-17.04-0.852-18.231-4.693
			c-1.184-3.865,15.334-33.302,17.114-37.089c1.844-3.747,6.522-21.519,8.684-26.349c2.139-4.884,9.915-9.09,12.197-12.532
			c2.29-3.486,1.017-8.903-1.443-13.251C324.416,161.157,322.826,160.049,321.905,160.532z"/>
			<linearGradient id="ian_symbols_d7b24d862ef31a84cd019dc0dd8c6b0a" gradientUnits="userSpaceOnUse" x1="1221.4922" y1="1669.6528" x2="1716.151" y2="1669.6528" gradientTransform="matrix(0.1986 0 0 -0.1986 -135.9726 528.1541)">
			<stop  offset="0" style="stop-color:#D1D1A8"/>
			<stop  offset="1" style="stop-color:#B6CFA2"/>
		</linearGradient>
		<path fill="url(#ian_symbols_d7b24d862ef31a84cd019dc0dd8c6b0a)" d="M106.723,133.291c1.492-4.717,15.437,8.081,21.368,12.842c5.973,4.761,36.571,22.04,44.664,37.177
			c8.113,15.093,26.514,34.494,30.495,51.256c3.996,16.742-0.472,15.245-2.6,20.15c-2.073,4.919-7.605,9.887-16.259,2.048
			c-8.669-7.854-11.683-59.399-38.034-80.229C120.028,155.721,105.196,137.935,106.723,133.291z"/>
			<linearGradient id="ian_symbols_3e7c699faa325414996365826288bc2f" gradientUnits="userSpaceOnUse" x1="2244.4519" y1="1310.7572" x2="2666.2021" y2="1310.7572" gradientTransform="matrix(0.1986 0 0 -0.1986 -135.9726 528.1541)">
			<stop  offset="0" style="stop-color:#D1D1A8"/>
			<stop  offset="1" style="stop-color:#B6CFA2"/>
		</linearGradient>
		<path fill="url(#ian_symbols_3e7c699faa325414996365826288bc2f)" d="M310.072,247.423c2.425-7.111,12.015-3.92,16.498-4.59c4.464-0.67,21.373,5.653,29.986,7.332
			c8.61,1.655,18.165,10.188,26.123,15.25c7.91,5.047,11.094,16.403,10.843,20.179c-0.224,3.752-2.297,5.22-5.904,6.677
			c-3.624,1.438-4.897,0.286-4.897,0.286s3.942-1.803,2.309-7.884c-1.62-6.062-11.087-8.499-17.087-10.498
			c-6.022-2.029-25.546-5.378-30.896-5.491c-5.338-0.074-16.031-5.574-16.031-5.574S307.635,254.538,310.072,247.423z"/>
			<linearGradient id="ian_symbols_cb7a46a90b0af294a9d6aacaf4ed2e40" gradientUnits="userSpaceOnUse" x1="2030.7585" y1="1278.2362" x2="2648.8276" y2="1278.2362" gradientTransform="matrix(0.1986 0 0 -0.1986 -135.9726 528.1541)">
			<stop  offset="0" style="stop-color:#D1D1A8"/>
			<stop  offset="1" style="stop-color:#B6CFA2"/>
		</linearGradient>
		<path fill="url(#ian_symbols_cb7a46a90b0af294a9d6aacaf4ed2e40)" d="M268.348,238.958c0,0-3.927,14.895,3.693,22.892c7.617,8.012,23.791,3.393,31.768,7.307
			c7.972,3.9,26.758,20.608,32.96,21.848c6.227,1.271,21.647,0.207,28.033,5.18c6.392,4.983,21.966,14.575,25.009,13.339
			c3.002-1.226-19.504-20.08-27.125-25.738c-7.598-5.717-30.333-21.361-35.107-27.378c-4.815-6.052-19.856-13.679-19.856-13.679
			L268.348,238.958z"/>
			<linearGradient id="ian_symbols_8801c5be637f0a6495e4b846bc596268" gradientUnits="userSpaceOnUse" x1="1955.6777" y1="1609.4481" x2="2232.4133" y2="1609.4481" gradientTransform="matrix(0.1986 0 0 -0.1986 -135.9726 528.1541)">
			<stop  offset="0.0056" style="stop-color:#DCDDBE"/>
			<stop  offset="1" style="stop-color:#CACFAC"/>
		</linearGradient>
		<path fill="url(#ian_symbols_8801c5be637f0a6495e4b846bc596268)" d="M260.661,258.886c-9.203-3.161-6.539-14.812-8.004-20.273c-1.428-5.525,4.165-25.99,5.059-36.458
			c0.921-10.518,10.232-21.967,15.462-31.583c5.188-9.597,18.921-13.157,23.668-12.793c4.762,0.369,6.862,2.94,9.152,7.371
			c2.314,4.456,1.034,5.997,1.034,5.997s-2.774-4.845-10.131-2.994c-7.381,1.841-9.122,13.334-10.781,20.637
			c-1.672,7.268-3.235,31.032-2.607,37.6c0.603,6.529-4.774,19.436-4.774,19.436S269.906,261.988,260.661,258.886z"/>
			<linearGradient id="ian_symbols_78528a5a578dde14f193f5deaef5c430" gradientUnits="userSpaceOnUse" x1="1861.2864" y1="1497.0415" x2="2221.0564" y2="1497.0415" gradientTransform="matrix(0.1986 0 0 -0.1986 -135.9726 528.1541)">
			<stop  offset="0.0056" style="stop-color:#B5B69B"/>
			<stop  offset="1" style="stop-color:#CACFAC"/>
		</linearGradient>
		<path fill="url(#ian_symbols_78528a5a578dde14f193f5deaef5c430)" d="M236.146,263.273c-5.872-4.756,0.46-12.63,1.382-17.082c0.933-4.436,12.751-18.057,17.35-25.536
			c4.53-7.49,15.846-13.507,23.345-19.194c7.517-5.688,19.253-4.727,22.715-3.176c3.427,1.502,4.089,3.959,4.185,7.888
			c0.113,3.856-1.43,4.702-1.43,4.702s-0.303-4.328-6.581-4.919c-6.244-0.616-11.83,7.43-15.795,12.345
			c-3.969,4.959-13.915,22.065-15.907,27.053c-1.911,4.993-10.747,13.084-10.747,13.084S241.962,268.015,236.146,263.273z"/>
			<linearGradient id="ian_symbols_cbe61c3da941f3740d5b2bb011b73fa8" gradientUnits="userSpaceOnUse" x1="2035.3795" y1="1166.077" x2="2351.4929" y2="1166.077" gradientTransform="matrix(0.1986 0 0 -0.1986 -135.9726 528.1541)">
			<stop  offset="0" style="stop-color:#D1D1A8"/>
			<stop  offset="1" style="stop-color:#B6CFA2"/>
		</linearGradient>
		<path fill="url(#ian_symbols_cbe61c3da941f3740d5b2bb011b73fa8)" d="M268.476,255.341c-1.197,6.751,2.609,11.424,7.445,16.934c4.794,5.51,15.819,8.539,18.906,12.305
			c3.125,3.718,16.087,13.906,18.146,16.176c2.065,2.255,6.487,5.806,7.59,10.223c1.111,4.402,0.941,11.187,1.335,14.605
			c0.379,3.392,2.235,10.232,3.272,12.483c1.029,2.216,0.758,3.9,2.775,3.969c2.019,0.069,0.488-7.756,1.76-12.301
			c1.241-4.565,1.734-12.276,0.956-19.101c-0.825-6.8-13.64-25.221-16.382-28.491c-2.77-3.274-16.895-20.016-19.95-23.059
			c-3.107-3.014-9.929-7.15-9.929-7.15S269.704,248.594,268.476,255.341z"/>
			<linearGradient id="ian_symbols_46cab93d288744c461e94c17c27892ed" gradientUnits="userSpaceOnUse" x1="1823.4187" y1="1112.946" x2="2070.7136" y2="1112.946" gradientTransform="matrix(0.1986 0 0 -0.1986 -135.9726 528.1541)">
			<stop  offset="0.0056" style="stop-color:#DCDDBE"/>
			<stop  offset="1" style="stop-color:#CACFAC"/>
		</linearGradient>
		<path fill="url(#ian_symbols_46cab93d288744c461e94c17c27892ed)" d="M235.922,260.368c5.072,1.95,5.16,2.486,8.08,5.234c2.945,2.748,8.004,12.601,10.124,17.712
			c2.132,5.106,8.487,21.843,9.622,28.196c1.199,6.357,5.311,23.38,6.664,24.896c1.307,1.531,3.238,4.973,4.333,6.815
			c1.11,1.841,0.081,6.8,0.286,8.288c0.244,1.526-0.379,3.013-2.113,2.649c-1.748-0.365-1.206-4.368-3.57-7.165
			c-2.398-2.851-2.384-4.811-5.877-7.495c-3.474-2.703-5.535-11.217-8.467-15.944c-2.94-4.727-4.59-14.438-8.526-18.46
			c-3.981-4.033-8.647-13.074-10.904-14.797c-2.194-1.679-6.229-6.293-7.741-8.942c-1.497-2.64-2.066-6.52-1.401-8.031
			c0.615-1.467,1.435-7.765,1.435-7.765S230.816,258.423,235.922,260.368z"/>
			<linearGradient id="ian_symbols_c55f75014daed01491c53b7a1befdefe" gradientUnits="userSpaceOnUse" x1="1385.7798" y1="1149.8618" x2="1613.8298" y2="1149.8618" gradientTransform="matrix(0.1986 0 0 -0.1986 -135.9726 528.1541)">
			<stop  offset="0.0056" style="stop-color:#DCDDBE"/>
			<stop  offset="1" style="stop-color:#CACFAC"/>
		</linearGradient>
		<path fill="url(#ian_symbols_c55f75014daed01491c53b7a1befdefe)" d="M176.887,262.776c-5.323,1.841-9.839,3.988-11.641,9.577c-1.8,5.574,3.137,17.559,1.834,21.248
			c-1.305,3.629-4.07,13.984-4.794,16.304c-0.677,2.354-1.28,6.864-3.922,9.39c-2.662,2.511-7.576,5.067-9.799,6.667
			c-2.275,1.625-6.333,5.657-7.47,7.253c-1.103,1.611-2.423,2.058-1.591,3.511c0.832,1.448,5.717-2.689,9.516-3.619
			c3.772-0.926,9.494-3.614,13.989-6.884c4.484-3.245,11.968-19.534,13.113-22.735c1.084-3.245,6.84-19.819,7.638-23.129
			c0.793-3.373,0.773-9.809,0.773-9.809S182.225,260.983,176.887,262.776z"/>
			<linearGradient id="ian_symbols_bf432348e4f8d8d481458ccd1cfa8b10" gradientUnits="userSpaceOnUse" x1="1329.6642" y1="1433.3229" x2="1751.6687" y2="1433.3229" gradientTransform="matrix(0.1986 0 0 -0.1986 -135.9726 528.1541)">
			<stop  offset="0.0056" style="stop-color:#DCDDBE"/>
			<stop  offset="1" style="stop-color:#CACFAC"/>
		</linearGradient>
		<path fill="url(#ian_symbols_bf432348e4f8d8d481458ccd1cfa8b10)" d="M211.678,254.267c-1.226-7.519-5.628-5.933-11.54-7.283c-5.914-1.335-14.095-1.271-18.003-2.349
			c-3.846-1.049-18.36-0.163-20.836-0.616c-2.487-0.468-7.477-0.236-9.861-3.624c-2.337-3.353-8.324-8.75-9.821-11.744
			c-1.436-2.994-7.861-7.199-9.454-8.489c-1.635-1.285-1.926-3.161-3.701-1.551c-1.753,1.6,3.37,7.48,3.755,12.936
			c0.372,5.461,7.741,11.616,10.648,17.554c2.876,5.968,19.857,13.202,23.323,14.068c3.393,0.838,20.974,5.377,24.618,5.781
			c3.614,0.359,10.848-1.256,10.848-1.256S213.709,266.755,211.678,254.267z"/>
			<linearGradient id="ian_symbols_794e9d4fe02ce694a9d626454a0eef63" gradientUnits="userSpaceOnUse" x1="1586.8397" y1="1094.6514" x2="1831.4803" y2="1094.6514" gradientTransform="matrix(0.1986 0 0 -0.1986 -135.9726 528.1541)">
			<stop  offset="0.0056" style="stop-color:#DCDDBE"/>
			<stop  offset="1" style="stop-color:#CACFAC"/>
		</linearGradient>
		<path fill="url(#ian_symbols_794e9d4fe02ce694a9d626454a0eef63)" d="M182.759,362.041c-3.962-0.088-2.499-14.029-2.364-19.815c0.15-5.82-3.988-33.952,2.174-43.869
			c6.155-9.922,8.932-24.449,18.325-31.505c9.415-7.111,11.624-7.741,16.107-7.258c4.463,0.502,11.539,5.633,10.688,14.289
			c-0.876,8.657-35.454,21.203-35.963,46.819C191.211,346.299,186.748,362.135,182.759,362.041z"/>
			<linearGradient id="ian_symbols_eb44b3b0fb26b1f4651b87a322ef5fef" gradientUnits="userSpaceOnUse" x1="1934.3336" y1="1211.4878" x2="2146.2771" y2="1211.4878" gradientTransform="matrix(0.1986 0 0 -0.1986 -135.9726 528.1541)">
			<stop  offset="0" style="stop-color:#D1D1A8"/>
			<stop  offset="1" style="stop-color:#B6CFA2"/>
		</linearGradient>
		<path fill="url(#ian_symbols_eb44b3b0fb26b1f4651b87a322ef5fef)" d="M250.625,254.617c-2.758,5.195-3.515,9.213-0.495,13.62c3.013,4.402,12.224,6.948,14.093,9.883
			c1.888,3.004,11.141,11.187,12.414,12.946c1.32,1.792,4.449,4.668,4.356,8.13c-0.062,3.427-1.911,8.696-2.344,11.35
			c-0.502,2.659-0.509,8.031-0.123,9.775c0.441,1.743-0.229,3.058,1.512,3.167c1.827,0.088,2.418-6.028,4.631-9.548
			c2.223-3.521,4.592-9.494,5.527-14.831c0.921-5.318-6.177-19.864-7.856-22.459c-1.687-2.566-10.326-15.88-12.394-18.283
			c-2.024-2.418-7.172-5.786-7.172-5.786S253.334,249.397,250.625,254.617z"/>
	</g>
</g>
</svg>
