<?xml version="1.0" encoding="UTF-8" standalone="no"?>
<svg xmlns:rdf="http://www.w3.org/1999/02/22-rdf-syntax-ns#" xmlns="http://www.w3.org/2000/svg" height="501px" width="461px" xmlns:cc="http://creativecommons.org/ns#" xmlns:xlink="http://www.w3.org/1999/xlink" xmlns:dc="http://purl.org/dc/elements/1.1/">
<title>Sponge 1</title>
<desc xmlns:ian_image_library="http://ian.umces.edu/imagelibrary/">
      <ian_image_library:title>Sponge 1</ian_image_library:title>
      <ian_image_library:descr>Illustration of sponge</ian_image_library:descr>
      <ian_image_library:scene>
		<ian_image_library:contains>symbol,vector,illustration,sea,sponge,Porifera</ian_image_library:contains>
        <ian_image_library:when>2003-01-01</ian_image_library:when>
	  </ian_image_library:scene>
   </desc>
    <metadata
		id="metadata-iil-3671ceceec475e64d95abd83eea3aadf">
      <rdf:RDF>
      <cc:Work
         rdf:about="">
        <dc:format>image/svg+xml</dc:format>
        <dc:type
           rdf:resource="http://purl.org/dc/dcmitype/StillImage" />
        <cc:license
           rdf:resource="http://creativecommons.org/licenses/by-sa/3.0/" />
        <dc:title>Sponge 1</dc:title>
		<dc:date>2003-01-01</dc:date>
        <dc:creator>
			<cc:Agent>
				<dc:title>Tracey Saxby</dc:title>
			</cc:Agent>
		</dc:creator>
		<dc:rights>
          <cc:Agent>
            <dc:title>Tracey Saxby, Integration and Application Network</dc:title>
          </cc:Agent>
        </dc:rights>
        <dc:publisher>
          <cc:Agent>
            <dc:title>Integration and Application Network</dc:title>
          </cc:Agent>
        </dc:publisher>
		<dc:identifier>http://ian.umces.edu/imagelibrary/displayimage-4349.html</dc:identifier>
        <dc:source>http://ian.umces.edu/imagelibrary/displayimage-4349.html</dc:source>
        <dc:language>en-US</dc:language>
        <dc:subject>
          <rdf:Bag>
            <rdf:li>symbol,vector,illustration,sea,sponge,Porifera</rdf:li>
          </rdf:Bag>
        </dc:subject>
        <dc:coverage></dc:coverage>
        <dc:description>Illustration of sponge</dc:description>
        <dc:contributor>
          <cc:Agent>
            <dc:title></dc:title>
          </cc:Agent>
        </dc:contributor>
      </cc:Work>
      <cc:License
         rdf:about="http://creativecommons.org/licenses/by-sa/3.0/">
        <cc:permits
           rdf:resource="http://creativecommons.org/ns#Reproduction" />
        <cc:permits
           rdf:resource="http://creativecommons.org/ns#Distribution" />
        <cc:requires
           rdf:resource="http://creativecommons.org/ns#Notice" />
        <cc:requires
           rdf:resource="http://creativecommons.org/ns#Attribution" />
        <cc:permits
           rdf:resource="http://creativecommons.org/ns#DerivativeWorks" />
        <cc:requires
           rdf:resource="http://creativecommons.org/ns#ShareAlike" />
      </cc:License>
    </rdf:RDF>
  </metadata>
	
 <defs></defs>
 <radialGradient id="ian_symbols_a97738d6a791383435bfbf015fb2db8b" gradientUnits="userSpaceOnUse" cy="425.23" cx="218.02" r="157.75">
  <stop stop-color="#CEC97F" offset="0"/>
  <stop stop-color="#C4BD6B" offset=".6461"/>
 </radialGradient>
 <path stroke="#55783E" stroke-width="1.7261" d="m29.319 417.39c-7.96 5.023-1.062 7.923-5.66 13.344-4.834 5.677-13.593 1.181-15.7 9.602-4.096 16.37 22.321 37.231 35.766 29.802-7.295 23.437 21.292 13.053 36.942 14.786-3.402 15.979 19.371 8.65 27.563 8.05 15.562-1.152 21.336 9.979 39.143 4.773 7.798-2.278 10.825-6.195 18.896-5.434 2.252.202 6.972 3.782 11.705 3.815 9.224.088 37.339 1.497 41.271-7.1 2.11-4.632-2.832-9.811-2.165-13.755 1.558-9.143 6.642-8.354 13.606-11.853 3.465-1.739 5.833-5.205 11.644-5.151 7.431.088 13.465 5.09 21.252 4.302 5.832-.6 8.361-3.398 14.503-4.281 8.253-1.193 15.002 3.843 23.39 3.216 4.046-.283 7.74.601 10.869-2.906 1.915-2.13.667-5.198 1.935-6.587 1.551-1.719-.168-3.425 2.267-5.374.303-.209 8.266-.89 9.345-.998 5.798-.593 11.799-.85 17.786-1.18 1.962-5.057-2.926-14.847-.923-17.854 2.986-4.491 10.315-.33 14.671-.108-.815-16.984 34.016 1.679 35.176-18.69 10.922-3.128 33.253 5.704 35.782-12.756 1.119-8.111-5.455-9.413-8.22-16.169-2.528-6.202.027-9.405-5.488-13.774-8.846-7.012-23.193-1.895-32.525-5.232-15.231-5.455-30.031-10.1-47.662-8.051 2.09 12.299-14.591 9.372-22.015 8.341-12.561-1.732-39.14-3.837-50.852.311 5.198 27.961-48.606-10.552-45.734 12.129-10.619 4.12-20.2-3.351-30.321-1.962-8.988 1.262-11.314 9.622-21.205 9.607-10.848-.006-37.97-13.214-37.231 7.134-6.399 2.893-13.701-.208-20.709.196-6.15.344-9.454 3.162-14.938 4.281-6.385 1.281-12.643-3.398-18.879-2.664-10.396 1.207-5.292 4.107-11.509 10.553-2.097 2.19-4.406 2.495-6.799 4.086-1.949 1.261-5.276.863-7.019 2.225-1.689 1.309-1.264 4.564-1.925 5.003-4.793 3.11-10.996 3.12-16.052 6.33z" fill="url(#ian_symbols_a97738d6a791383435bfbf015fb2db8b)"/>
 <linearGradient id="ian_symbols_aab4d5c64610e4342dff2fc3c97433c7" y2="198.44" gradientUnits="userSpaceOnUse" x2="260.23" y1="198.44" x1="67.099">
  <stop stop-color="#C4BD6B" offset=".1461"/>
  <stop stop-color="#E5E2A7" offset=".6067"/>
  <stop stop-color="#C4BD6B" offset="1"/>
 </linearGradient>
 <path stroke="#55783E" stroke-width="1.7261" d="m82.483 384.46c-1.527-9.398 2.653-19.155 1.433-28.959-1.028-8.422-3.186-16.102-6.844-23.794-2.609-5.468-.118-10.593-.887-16.114-1.028-7.282-7.939-12.541-8.978-19.432-.938-6.284 4.484-9.494 4.74-15.447.462-10.087-6.607-11.058-2.555-20.625 1.915-4.535 4.804-4.541 5.218-10.455.27-3.897-1.891-7.329-2.717-10.956-.449-2.053-2.737-6.459-1.837-8.661 1.025-2.559 5.623-2.731 6.409-4.666 1.794-4.672-1.402-10.704-1.885-15.838-.6-6.625 1.241-12.396 1.817-18.717.503-5.424-1.348-11.864 1.025-16.93 3.233-6.902 6.581-6.551 7.861-14.312.9-5.424 2.984-10.804 3.618-16.034.812-6.459-4.43-10.963-4.322-16.802.107-5.188 3.489-7.959 4.224-12.419.856-5.208-1.42-10.063-.192-15.325 2.063-8.994 3.358-5.873 1.325-15.913-1.389-6.857-.351-8.472 1.608-14.655 2.468-7.861 1.547-10.13.661-18.302-.651-5.923 1.132-8.007 2.033-13.411 1.456-8.833-4.696-14.843-3.583-24.266h131.06c-1.787 5.593 4.329 9.891 2.744 15.194-.816 2.781-5.859 3.128-6.891 6.153-1.618 4.848.769 5.38 2.36 8.954 1.43 3.186 4.025 3.401 4.484 7.178.324 2.659-3.358 6.813-3.843 9.837-1.524 9.254 7.552 12.662 7.484 20.332-.054 5.331-5.145 7.124-3.392 14.183.553 2.299 3.061 5.13 3.311 7.184.168 1.416 1.895.88 1.868 2.818-.034 1.345-2.839 2.842-2.778 3.378.027.428-1.78 3.509-1.49 5.488.276 1.848 5.125 6.193 5.953 8.981.816 2.707-.586 5.99.183 8.772 1.686 5.913 3.351 7.292 3.701 13.71.311 5.293.095 8.674 2.36 13.829 3.364 7.571 3.27 6.877-2.428 13.626-8.212 9.702-5.461 6.955-1.119 18.106 2.92 7.542 1.402 9.372-2.697 16.023-6.499 10.586-4.085 12.14 2.01 22.877 5.077 8.907 3.398 10.545 3.506 18.963.041 2.394 1.53 6.169 1.437 8.047-.067 1.962-3.068 4.072-2.603 6.041 1.126 5.104 5.205 8.462 6.405 14.247.627 3.034 2.555 9.831 2.717 12.635.485 8.502-2.609 12.298.789 20.369 3.931 9.312 2.853 11.8 2.677 21.212-.176 9.251 6.749 10.606 9.776 19.21 1.571 4.463.533 8.778.041 13.343-.708 6.77 2.696 12.771 1.8 17.585" fill="url(#ian_symbols_aab4d5c64610e4342dff2fc3c97433c7)"/>
 <linearGradient id="ian_symbols_127ce0c1a7a3dff4ad7926d5f341da86" y2="310.07" gradientUnits="userSpaceOnUse" x2="172.59" y1="310.07" x1=".8633">
  <stop stop-color="#D9D492" offset="0"/>
  <stop stop-color="#E5E2A7" offset=".2303"/>
  <stop stop-color="#F8EFB5" offset=".6236"/>
  <stop stop-color="#E5E2A7" offset="1"/>
 </linearGradient>
 <path stroke="#55783E" stroke-width="1.7261" d="m169.54 421.04c5.515-9.515 2.36-8.186-.202-15.016-2.387-6.271-7.498-10.95-5.293-19.385 2.407-9.258 4.349-7.929 3.465-17.732-.89-9.776-4.483-17.948-5.563-27.51-.236-2.116.641-7.133.021-8.853-1.45-4.025-5.38-4.558-6.952-8.212-1.402-3.284 1.625-6.419.762-9.608-1.039-3.816-4.848-4.834-6.102-8.084-1.129-2.899.472-5.246-.148-7.039-1.841-5.509-11.85-13-3.688-18.077-1.753-4.309-4.47-5.954-5.091-10.498-.374-2.758.854-8.199.509-11.597-.262-2.757-2.417-2.95-1.837-6.203.492-2.717 4.45-4.214 4.791-6.28.792-4.534-4.544-8.769-4.544-14.244-.01-5.232 6.482-9.466 6.267-13.37-.3-5.583-7.787-6.952-8.951-12.514-1.378-6.641 8.405-17.561-3.543-19.614l-125.75-5.35c-1.473 1.831-5.785 4.794-6.479 7.093-1.767 5.657 3.594 8.684 3.854 14.243.272 5.192-2.751 7.66-2.529 12.568.132 3.038 3.712 7.157 4.057 10.694.778 8.047-3.884 12.217.414 20.494 3.928 7.508 4.001 1.615 2.687 9.767-1.308 7.969-4.47 7.241.661 14.334 1.359 1.861 5.468 2.596 6.325 4.383 1.227 2.569-.752 3.479-.3 5.387 1.291 5.556.843 6.695 4.066 12.5 1.719 3.095 2.727 8.381 4.2 10.687 3.486 5.435 14.129 6.473 16.749 12.689 1.187 2.832-1.571 7.949-.735 11.408 1.646 6.844 7.636 9.109 12.501 13.357 8.761 7.699 6.469 18.028 13.529 26.902 10.495 13.194 12.706 42.1 1.018 54.998 3.756 3.924 3.176 12.871 8.246 14.928" fill="url(#ian_symbols_127ce0c1a7a3dff4ad7926d5f341da86)"/>
 <linearGradient id="ian_symbols_23f52e9393b662c401d9b90e5a3e8201" y2="392" gradientUnits="userSpaceOnUse" x2="205.76" y1="392" x1="92.847">
  <stop stop-color="#E5E2A7" offset=".2303"/>
  <stop stop-color="#F8EFB5" offset=".6236"/>
  <stop stop-color="#E5E2A7" offset="1"/>
 </linearGradient>
 <path stroke="#55783E" stroke-width="1.7261" d="m119.04 466.61c-5.903-1.18-19.54-3.337-9.935-10.835-27.514 1.48-12.1-23.13-10.627-37.64.59-5.894-2.269-10.479-2.31-15.791-.054-7.768 6.729-9.312 7.858-15.427.688-3.567-3.014-7.161-2.693-10.95.31-3.722 1.689-3.775 2.673-6.877 1.19-3.776 3.027-2.879 2.953-7.275-.054-3.297-3.317-5.616-3.836-8.771-.751-4.423.479-7.754-.836-12.615-1.132-4.201-5.488-9.662-4.409-14.166.654-2.812 6.378-6.277 7.926-8.873l96.306 1.773c.277 2.313 2.873 6.229 2.812 7.949-.135 3.601-3.54 6.203-4.375 9.386-2.225 8.73 4.349 11.111 5.198 18.292.344 2.96-2.778 4.666-2.778 7.127-.014 3.304 2.346 6.561 2.036 9.695-.485 4.794-3.911 7.484-3.115 14.449.6 5.266 3.344 10.37 1.881 15.824-.708 2.576-4.787 2.387-5.259 6.439-.486 4.093 2.603 5.536 3.6 8.927 1.598 5.36 1.807 10.113 1.814 16.088-.027 11.935 2.643 15.144-8.212 21.097-7.039 3.891-19.283 6.561-27.408 5.987" fill="url(#ian_symbols_23f52e9393b662c401d9b90e5a3e8201)"/>
 <linearGradient id="ian_symbols_86d1753d21345824a1652307d591a10a" y2="226.44" gradientUnits="userSpaceOnUse" x2="458.72" y1="226.44" x1="166.61">
  <stop stop-color="#E5E2A7" offset=".0618"/>
  <stop stop-color="#F8EFB5" offset=".1629"/>
  <stop stop-color="#D9D492" offset=".3596"/>
  <stop stop-color="#D9D492" offset=".7135"/>
  <stop stop-color="#E5E2A7" offset=".8652"/>
  <stop stop-color="#D9D492" offset="1"/>
 </linearGradient>
 <path stroke="#55783E" stroke-width="1.7261" d="m333.31 393.95c4.449-3.216 11.307-5.515 14.65-10.768-4.713-2.649-4.665-6.338-.991-10.16-1.152-.924-2.285-2.906-3.614-3.992 3.756-6.661 5.085-6.588 7.646-14.233 1.112-3.304 3.324-3.762 4.524-7.761 1.159-3.897-.074-6.183 1.706-9.999 1.698-3.606 3.249-5.063 4.483-9.149 1.659-5.528.553-8.272 4.551-13.263 2.097-2.643 4.754-4.8 6.203-7.059.256-.398-1.639-2.461-.991-3.614 1.929-3.371 4.524-4.261 5.388-7.963 1.045-4.443-1.962-8.509-1.801-12.683.566-14.948 11.874-8.287 18.73-15.144 4.127-4.133 4.255-13.701 5.354-18.525 1.221-5.444-.229-4.908 3.331-8.705 3.54-3.775 6.224-2.333 8.286-7.349 1.551-3.84.621-7.646 2.448-11.658.95-2.107 3.58-5.987 4.679-7.99 3.143-5.626 5.341-13.603 7.113-20.588.195-.803 2.326-1.305 2.778-2.761.337-1.059-1.464-2.724-1.221-3.408.337-.975.054-3.402.607-5.006 1.051-2.987 6.034-5.04 6.823-7.434.539-1.628-.722-3.402-.27-4.46 1.396-3.277 3.546-7.886 4.477-11.742.674-2.808-1.53-6.742-.513-9.929 1.072-3.327 4.146-4.416 5.219-6.931 2.285-5.434 1.059-13.326 3.533-20.459 1.248-3.634 4.767-5.701 5.124-9.817.311-3.543-2.69-6.119-2.271-10.495.195-2.27 2.993-2.889 3.364-5.559.276-2.003-1.214-3.47-.904-5.35.735-4.406 1.302-4.771 2.502-8.256 1.079-3.186 2.057-3.658 2.198-8.014.102-2.862-1.423-5.997-.951-9.409.419-2.899 3.048-4.248 3.217-8.013.087-2.605-3.041-4.426-2.495-8.212l-96.296 1.777c-6.352 2.95-1.476 6.139-1.726 10.555-.311 5.101-3.229 10.515-2.549 16.226.29 2.417 3.647 3.441 3.438 6.243-.249 3.155-2.791 3.018-3.438 5.33-1.665 5.924-2.926 8.162.85 14.311-6.048 2.512-3.25 7.956-5.158 12.599-1.786 4.278-6.547 6.547-7.511 11.391-.951 4.727 2.266 8.084 2.589 12.446.492 6.804-.688 4.066-2.535 8.624-2.259 5.633-1.948 12.811-6.236 17.442-2.394 2.576-5.441.813-7.802 4.14-2.218 3.122-.478 8.442-1.8 12.012-1.686 4.47-5.191 11.465-8.07 15.197-2.414 3.102-6.716 4.757-8.874 7.98-2.736 4.116.965 6.628-1.059 10.515-2.164 4.17-6.701 2.97-9.21 7.11-3.243 5.421.492 12.022-4.511 16.516-4.659 4.181-9.203 2.728-11.3-3.189-.891-2.491 1.247-5.188.27-7.764-1.099-2.963-4.996-2.879-5.994-6.139-1.079-3.553 1.767-4.642 1.409-7.113-.944-6.665-3.701-5.859-6.675-11.766-3.176-6.288 1.308-7.1 2.117-13.549.782-6.173-3.979-8.793-4.801-14.075-.513-3.307.796-5.04.924-8.067.155-3.294-.102-8.034.263-11.752.337-3.81 3.432-7.167 3.587-10.697.209-4.578-3.095-7.646-2.697-11.617.554-5.88 7.97-8.735 2.684-15.133l-95.426-5.347c-1.807 2.869-3.755 8.428-4.241 11.798-1.032 7.134 3.573 10.363 3.236 16.597-.836.266-1.558.044-2.4.28-.937 1.925-4.005 5.907-3.776 7.912.438 4.042 5.785 4.729 5.246 9.588-.357 3.226-8.293 7.184-8.812 11.771-.56 4.929 2.373 8.526 1.672 13.519-.479 3.327-3.688 5.252-3.438 8.822.168 2.333 3.135 4.332 3.209 6.001.188 4.858-5.138 8.785-4.76 13.798.324 4.437 4.8 4.922 7.154 8.492 3.378 5.016.371 6.813.883 11.573.728 6.813-.499 4.312 6.027 9.123 6.965 5.114 4.268 4.47 6.446 10.033.506 1.221-.566 3.634-.067 5.138 1.396 4.258 8.563 6.335 10.33 10.394 1.888 4.335-1.767 9.5-.02 13.047 1.948 3.917 10.403 4.268 12.993 8.428 2.157 3.459.593 7.707 2.623 10.903 2.286 3.594 7.882 4.437 9.669 8.017 2.286 4.619.047 7.093 3.492 11.59 2.07 2.697 8.408 4.956 9.514 8.092 1.159 3.209-1.518 4.969-1.234 7.808.324 3.176-.95 3.425.546 6.81 1.699 3.836 6.811 5.165 8.361 9.433 1.976 5.536-.169 8.058 3.526 14.079 2.05 3.323 4.767 2.413 5.016 6.425.148 2.333-4.24 8.186-5.077 10.754 3.79 3.648 10.788 5.495 12.387 10.66 1.672 5.414-3.695 6.891-1.808 11.604" fill="url(#ian_symbols_86d1753d21345824a1652307d591a10a)"/>
 <linearGradient id="ian_symbols_1b96d360bdae54e4fd162ceac27950b8" y2="13.249" gradientUnits="userSpaceOnUse" x2="221.17" y1="13.249" x1="90.71">
  <stop stop-color="#B8B265" offset=".0056"/>
  <stop stop-color="#D9D69F" offset=".3258"/>
  <stop stop-color="#B8B265" offset=".8876"/>
 </linearGradient>
 <path stroke="#55783E" stroke-width="1.7261" d="m218.46 9.76c11.53 7.457-14.442 15.875-62.502 15.875-48.077 0-74.045-8.418-62.53-15.875 8.431-5.455 35.586-8.897 62.53-8.897 26.92 0 54.09 3.442 62.5 8.897z" fill="url(#ian_symbols_1b96d360bdae54e4fd162ceac27950b8)"/>
 <linearGradient id="ian_symbols_e5a27e3ccf56b4c41d78cc36a2815cd3" y2="114.9" gradientUnits="userSpaceOnUse" x2="277.54" y1="114.9" x1="180.37">
  <stop stop-color="#C4BD6B" offset=".0056"/>
  <stop stop-color="#E5E2A7" offset=".3258"/>
  <stop stop-color="#C4BD6B" offset=".8876"/>
 </linearGradient>
 <path stroke="#55783E" stroke-width="1.7261" d="m275.52 112.29c8.583 5.596-10.741 11.914-46.557 11.914-35.809 0-55.16-6.318-46.557-11.914 6.264-4.096 26.491-6.685 46.557-6.685 20.07 0 40.29 2.59 46.56 6.69z" fill="url(#ian_symbols_e5a27e3ccf56b4c41d78cc36a2815cd3)"/>
 <linearGradient id="ian_symbols_7242d30fc5510b743534f7461fc4b270" y2="49.651" gradientUnits="userSpaceOnUse" x2="456.48" y1="49.651" x1="359.82">
  <stop stop-color="#C4BD6B" offset=".0056"/>
  <stop stop-color="#E5E2A7" offset=".3258"/>
  <stop stop-color="#C4BD6B" offset=".8876"/>
 </linearGradient>
 <path stroke="#55783E" stroke-width="1.7261" d="m454.47 47.045c8.536 5.563-10.707 11.864-46.32 11.864-35.621 0-54.864-6.301-46.321-11.864 6.251-4.076 26.363-6.651 46.321-6.651 19.97 0 40.09 2.576 46.32 6.651z" fill="url(#ian_symbols_7242d30fc5510b743534f7461fc4b270)"/>
 <linearGradient id="ian_symbols_51c54467819dde94a1068cf318315607" y2="186.12" gradientUnits="userSpaceOnUse" x2="135.25" y1="186.12" x1="5.772">
  <stop stop-color="#C4BD6B" offset=".0056"/>
  <stop stop-color="#E5E2A7" offset=".3258"/>
  <stop stop-color="#C4BD6B" offset=".8876"/>
 </linearGradient>
 <path stroke="#55783E" stroke-width="1.7261" d="m132.56 182.88c11.432 6.917-14.341 14.726-62.054 14.726-47.689 0-73.479-7.808-62.037-14.726 8.368-5.06 35.32-8.246 62.037-8.246 26.726 0 53.694 3.19 62.054 8.25z" fill="url(#ian_symbols_51c54467819dde94a1068cf318315607)"/>
 <linearGradient id="ian_symbols_b05dee7f73486184c95e8921606039cc" y2="318.29" gradientUnits="userSpaceOnUse" x2="202.93" y1="318.29" x1="105.79">
  <stop stop-color="#C4BD6B" offset=".0056"/>
  <stop stop-color="#E5E2A7" offset=".3258"/>
  <stop stop-color="#C4BD6B" offset=".8876"/>
 </linearGradient>
 <path stroke="#55783E" stroke-width="1.7261" d="m200.91 315.67c8.583 5.596-10.748 11.913-46.543 11.913-35.796 0-55.146-6.317-46.557-11.913 6.267-4.106 26.491-6.683 46.557-6.683 20.05 0 40.28 2.57 46.54 6.68z" fill="url(#ian_symbols_b05dee7f73486184c95e8921606039cc)"/>
</svg>
