<?xml version="1.0" encoding="UTF-8" standalone="no"?>
<svg xmlns:rdf="http://www.w3.org/1999/02/22-rdf-syntax-ns#" xmlns="http://www.w3.org/2000/svg" height="501px" width="310px" xmlns:cc="http://creativecommons.org/ns#" xmlns:xlink="http://www.w3.org/1999/xlink" xmlns:dc="http://purl.org/dc/elements/1.1/">
<title>Oyster</title>
<desc xmlns:ian_image_library="http://ian.umces.edu/imagelibrary/">
      <ian_image_library:title>Oyster</ian_image_library:title>
      <ian_image_library:descr>Illustration of oyster</ian_image_library:descr>
      <ian_image_library:scene>
		<ian_image_library:contains>symbol,vector,illustration,oyster,Mollusca,Bivalvia,bivalve</ian_image_library:contains>
        <ian_image_library:when>2003-01-01</ian_image_library:when>
	  </ian_image_library:scene>
   </desc>
    <metadata
		id="metadata-iil-75dcf698375974a4d9f62abbb1342165">
      <rdf:RDF>
      <cc:Work
         rdf:about="">
        <dc:format>image/svg+xml</dc:format>
        <dc:type
           rdf:resource="http://purl.org/dc/dcmitype/StillImage" />
        <cc:license
           rdf:resource="http://creativecommons.org/licenses/by-sa/3.0/" />
        <dc:title>Oyster</dc:title>
		<dc:date>2003-01-01</dc:date>
        <dc:creator>
			<cc:Agent>
				<dc:title>Tracey Saxby</dc:title>
			</cc:Agent>
		</dc:creator>
		<dc:rights>
          <cc:Agent>
            <dc:title>Tracey Saxby, Integration and Application Network</dc:title>
          </cc:Agent>
        </dc:rights>
        <dc:publisher>
          <cc:Agent>
            <dc:title>Integration and Application Network</dc:title>
          </cc:Agent>
        </dc:publisher>
		<dc:identifier>http://ian.umces.edu/imagelibrary/displayimage-4320.html</dc:identifier>
        <dc:source>http://ian.umces.edu/imagelibrary/displayimage-4320.html</dc:source>
        <dc:language>en-US</dc:language>
        <dc:subject>
          <rdf:Bag>
            <rdf:li>symbol,vector,illustration,oyster,Mollusca,Bivalvia,bivalve</rdf:li>
          </rdf:Bag>
        </dc:subject>
        <dc:coverage></dc:coverage>
        <dc:description>Illustration of oyster</dc:description>
        <dc:contributor>
          <cc:Agent>
            <dc:title></dc:title>
          </cc:Agent>
        </dc:contributor>
      </cc:Work>
      <cc:License
         rdf:about="http://creativecommons.org/licenses/by-sa/3.0/">
        <cc:permits
           rdf:resource="http://creativecommons.org/ns#Reproduction" />
        <cc:permits
           rdf:resource="http://creativecommons.org/ns#Distribution" />
        <cc:requires
           rdf:resource="http://creativecommons.org/ns#Notice" />
        <cc:requires
           rdf:resource="http://creativecommons.org/ns#Attribution" />
        <cc:permits
           rdf:resource="http://creativecommons.org/ns#DerivativeWorks" />
        <cc:requires
           rdf:resource="http://creativecommons.org/ns#ShareAlike" />
      </cc:License>
    </rdf:RDF>
  </metadata>
	
 <defs></defs>
 <linearGradient id="ian_symbols_2f4abca170a3c8d41d0a6fd96ee31b01" y2="80.649" gradientUnits="userSpaceOnUse" x2="273.5" y1="409.4" x1="-55.253">
  <stop stop-color="#fff" offset="0"/>
  <stop stop-color="#806246" offset="1"/>
 </linearGradient>
 <path stroke="#776A46" stroke-width="1.7279" d="m152.05.931c7.897 1.127 34.93 34.934 40.58 39.449 5.629 4.492 33.789-5.639 38.291-2.251 4.529 3.365 10.158 25.905 13.52 29.294 3.389 3.388 6.777 1.113 10.165 5.616 3.368 4.516 4.495 34.946 7.87 38.325 3.368 3.388 7.884 0 12.386 0 4.536 0 10.165 3.388 14.668 12.393 4.495 9.018 19.142 36.06 19.142 43.95 0 7.884-11.258 7.884-13.513 13.523-2.261 5.629-23.664 40.563-23.664 50.694 0 10.145 20.289 34.937 19.162 41.693-1.127 6.763-23.685 13.541-25.926 19.169-2.255 5.629-30.421 48.456-32.662 55.213-2.274 6.743-3.388 15.761-3.388 19.148 0 3.368-9.019 16.908-12.406 19.163-3.368 2.241-10.118 7.87-12.386 10.131-2.241 2.248-2.241 11.266-3.389 14.646-1.113 3.39-13.52 7.904-15.768 12.407-2.268 4.516-5.663 10.145-9.018 14.626-3.382 4.509-9.018 0-11.272 2.269-2.254 2.24-23.65 20.275-25.918 23.664-2.261 3.382 0 7.897-1.121 10.138-1.141 2.262-18.015 4.51-23.644 5.63-5.65 1.12-20.324 16.914-31.555 19.156-11.272 2.24-32.709-20.276-40.586-21.397-7.871-1.127-30.408 2.241-37.185-9.018-6.756-11.285-2.241-21.423 0-28.173 2.261-6.75 4.502-4.509 10.152-6.75 5.629-2.269 0-5.629 1.127-12.406 1.126-6.756 5.629-5.629 9.017-7.897 3.389-2.248 5.629-15.767 4.502-20.276-1.113-4.508-5.629-14.653-6.743-20.282-1.147-5.63 3.368-5.63 4.502-9.018 1.127-3.389 0-5.63 2.241-10.132 2.275-4.516 4.516 2.241 5.643-2.274 1.114-4.482-6.756-24.778-6.756-30.408 0-5.643 3.388-2.274 4.501-5.643 1.127-3.374-5.629-11.258-5.629-15.76 0-4.516 2.241-10.146 2.241-15.774 0-5.649-7.89-10.152-9.018-14.667-1.113-4.495 1.127-40.552 2.275-43.94 1.114-3.368 1.114-15.764 1.114-19.143 0-3.388-7.89-5.649-7.89-10.151 0-4.516 5.629-18.025 4.501-22.527-1.113-4.506-13.52-23.664-12.392-29.294 1.114-5.629 5.419-26.206 3.833-32.277-1.593-6.035-2.72-15.052-2.72-15.052l22.571-21.404 13.479-25.926 20.317-15.774 19.142-2.241s10.138-21.424 18.035-25.926c7.89-4.516 21.396 10.142 28.153 9.004 6.78-1.105 13.53-14.637 21.43-13.51z" fill="url(#ian_symbols_2f4abca170a3c8d41d0a6fd96ee31b01)"/>
 <linearGradient id="ian_symbols_ec3ef4266e50fd34794145875adc5e0f" y2="96.877" gradientUnits="userSpaceOnUse" x2="255.38" y1="375.55" x1="-23.296">
  <stop stop-color="#fff" offset="0"/>
  <stop stop-color="#816E4B" offset="1"/>
 </linearGradient>
 <path stroke="#86763F" stroke-width="1.7279" d="m108.1 456.16c7.891 2.269 13.527 3.389 24.785-2.268 11.259-5.629 57.474-55.199 67.605-64.19 10.138-9.018 27.032-51.439 30.421-58.183 3.389-6.776-4.488-10.57-2.24-20.715 2.24-10.145 20.276-21.403 24.777-32.682 4.516-11.259 0-37.178 2.274-48.457 2.241-11.249 11.259-31.535 15.762-40.552 4.515-9.018 15.773-5.629 16.9-12.396 1.135-6.753 6.062-18.937 2.694-24.586-3.39-5.629-17.125-19.311-22.754-20.448-5.649-1.124-13.311-.705-14.411-6.348-1.127-5.629 3.793-11.471-.708-15.987-4.517-4.502-11.017-22.784-17.766-31.791-6.77-9.018-13.331-11.022-17.833-13.264-4.495-2.25-4.043-7.229-8.545-11.741-4.516-4.515-7.425 0-15.322 0s-5.629-16.685-14.681-15.558c-8.983 1.138-6.736-7.397-14.627-9.639-7.883-2.264 1.135-14.016-11.245-15.153-12.433-1.137-12.433 12.396-18.069 15.784-5.623 3.389-20.243-1.127-20.243-1.127s-3.388 1.127-5.629 4.516c-2.274 3.368-11.292 3.368-14.674 4.492-3.356 1.142-7.864 10.15-12.346 12.411-4.515 2.261-13.533 0-18.035 2.261-4.529 2.254-7.904 13.513-11.286 18.015-3.388 4.502-11.265 9.018-12.379 14.657-1.127 5.629-2.269 16.912-2.269 24.792 0 7.881-9.004 6.767-11.245 16.898-2.261 10.145 7.884 24.792 7.884 32.683s-9.018 23.665-7.884 37.174c1.127 13.523 8.998 6.777 10.125 16.908 1.12 10.145-6.756 37.198-5.609 45.068 1.113 7.891 20.256 46.196 20.256 52.958 0 6.757-7.897 8.997-6.777 19.163 1.147 10.145 13.553 18.034 7.897 29.293-5.629 11.259-13.506 14.647-14.647 23.665-1.12 9.018-6.729 29.293-4.488 38.312 2.242 9.018 7.871 23.651 18.016 29.28 10.151 5.67 48.451 4.52 56.341 6.79z" fill="url(#ian_symbols_ec3ef4266e50fd34794145875adc5e0f)"/>
 <linearGradient id="ian_symbols_c7af6739f242cea4d9a82c86ccc6e857" y2="75.234" gradientUnits="userSpaceOnUse" x2="203.61" y1="406.37" x1="49.195">
  <stop stop-color="#fff" offset="0"/>
  <stop stop-color="#FBFBFA" offset=".1229"/>
  <stop stop-color="#F0EFEB" offset=".272"/>
  <stop stop-color="#DEDBD2" offset=".4348"/>
  <stop stop-color="#C5BFB0" offset=".6073"/>
  <stop stop-color="#A59C84" offset=".7875"/>
  <stop stop-color="#7E714F" offset=".9715"/>
  <stop stop-color="#776A46" offset="1"/>
 </linearGradient>
 <path stroke="#9A8965" stroke-width="1.7279" d="m154.08 52.387c8.289 2.082 4.151 8.299 10.36 16.557 6.217 8.299 18.656 6.23 26.945 6.23 8.269 0 16.577 2.069 18.623 8.289 2.071 6.217-6.196 8.275-2.065 16.564 4.137 8.298 10.354 10.371 18.643 14.498 8.282 4.162 8.269 12.427 12.419 18.646 4.158 6.22 14.499 12.45 18.656 18.646 4.151 6.22-6.209 10.381-8.274 14.508-2.079 4.138-18.657 16.578-16.578 24.853 2.06 8.289 6.196 8.289 6.196 16.577s-8.269 29.003-10.348 35.213c-2.071 6.23-12.426 20.718-12.426 29.007s-2.072 29.024-2.072 37.292c0 8.262 4.138 18.623 0 26.912-4.15 8.288-8.288 22.793-12.439 29.017-4.138 6.203-26.911 31.069-31.063 37.292-4.157 6.196-12.446 26.912-35.22 31.063-22.787 4.158-45.581-8.289-45.581-8.289l-31.062-14.484s-8.12-8.269-8.309-24.866c-.142-16.598 6.257-35.247 10.387-49.731 4.138-14.499-10.387-6.21-8.289-12.427 2.059-6.224 10.361-10.341 8.289-20.694-2.078-10.368-18.656-43.523-18.656-51.812 0-8.278 8.269-37.292 8.269-45.571 0-8.278-10.341-4.151-10.341-16.567 0-12.426 6.196-20.735 10.341-29.004 4.158-8.289-4.145-22.773-2.052-33.145 2.052-10.368 8.309-29.004 18.65-33.141 10.347-4.141-1.269-17.823 7.02-13.682 8.289 4.137 19.905 7.462 21.97 1.252 2.072-6.217 2.093-35.224 10.381-33.152 8.268 2.079 10.361 2.079 18.616 4.148 8.28 2.064 20.71-2.087 29-.018z" fill="url(#ian_symbols_c7af6739f242cea4d9a82c86ccc6e857)"/>
 <linearGradient id="ian_symbols_3a8e2490d14453540d1760ce7d554a8e" y2="240.35" gradientUnits="userSpaceOnUse" x2="209.82" y1="360.1" x1="38.785">
  <stop stop-color="#FFFDE9" offset="0"/>
  <stop stop-color="#FBF6E2" offset=".2672"/>
  <stop stop-color="#EEE6D2" offset=".4372"/>
  <stop stop-color="#DED2BC" offset=".58"/>
  <stop stop-color="#C9B8A0" offset=".7077"/>
  <stop stop-color="#B0997F" offset=".8255"/>
  <stop stop-color="#93775C" offset=".9343"/>
  <stop stop-color="#806246" offset="1"/>
 </linearGradient>
 <path stroke="#A29171" stroke-width="1.7279" d="m150.92 187.99c5.629-1.127 24.785 4.512 29.294 10.142s.891 9.662 3.132 18.7c2.262 9.018 17.145 15.096 21.66 25.24 4.502 10.155-4.516 41.7-3.368 51.845 1.12 10.132-2.261 38.312-4.509 49.57-2.268 11.259-16.936 40.572-23.691 48.456-6.75 7.87-21.397 25.906-31.535 28.167-10.165 2.274-60.855 0-60.855 0s-28.174-37.164-27.033-47.329c1.127-10.131 15.814-35.396 14.667-47.781-1.127-12.386-5.65-53.634-5.65-53.634s-18.548-34.46-8.396-49.098c10.165-14.667 25.292-26.398 35.429-29.766 10.138-3.388 25.926-3.388 33.803-2.271 7.88 1.11 21.44-1.13 27.06-2.25z" fill="url(#ian_symbols_3a8e2490d14453540d1760ce7d554a8e)"/>
 <path stroke="#C4AA93" stroke-width="1.7279" d="m88.011 378.41c33.836 3.389 47.336 31.568 42.834 47.35-4.516 15.754-28.167 28.133-58.602 22.504-30.408-5.63-32.682-22.504-29.293-39.433 3.393-16.89 11.277-33.81 45.066-30.42z" fill="#FFFDE9"/>
 <path stroke="#776A46" stroke-width="1.7279" d="m62.916 126.96s.027-16.564 16.598-18.636c16.557-2.089 12.44 4.142 26.938 4.142 14.464 0 4.131-31.076 16.557-31.076s16.557 6.209 24.846 10.36c8.309 4.128-4.131 14.496 6.223 20.715 10.36 6.22 18.663 2.058 29.017 2.058 10.341 0 8.289 10.368 12.42 18.646 4.138 8.289 24.853 20.714 24.853 20.714" fill="none"/>
 <path stroke="#776A46" stroke-width="1.7279" d="m72.473 166.33s-9.558-18.646 4.954-22.797c14.519-4.138 18.643 4.162 33.155 2.092 14.485-2.092 10.354-12.45 20.715-16.591 10.354-4.137 16.577 4.151 20.715 10.361 4.151 6.23 0 12.426 4.151 18.646 4.138 6.23 18.623-2.069 28.984 0 10.367 2.069 6.236 6.23 10.367 14.519 4.138 8.265 20.694 10.348 22.78 18.623 2.072 8.289-8.288 10.347-8.288 18.646 0 8.289 6.223 18.636 6.223 18.636" fill="none"/>
 <path stroke="#A29171" stroke-width="1.7279" d="m83.421 255.58s21.903-6.24 35.962-6.24c14.053 0 9.349 1.556 12.48 10.928 3.132 9.382 17.185 15.646 25.001 17.199 7.823 1.545 18.771 0 21.896 6.25 3.132 6.243 1.56 18.743-1.572 26.546-3.112 7.823-10.948 4.712-12.501 14.081-1.559 9.375 15.633 21.875 12.501 31.244-3.112 9.395-23.57 17.212-28.254 23.455-4.685 6.237 1.694 17.186 1.694 17.186" fill="none"/>
 <path stroke="#A29171" stroke-width="1.7279" d="m75.612 225.89s21.896-15.632 31.244-17.188c9.375-1.576 14.06 3.128 17.191 9.372 3.132 6.25 10.948 15.632 18.765 15.632 7.816 0 7.796-12.524 14.053-14.08 6.264-1.552 9.396 6.264 9.396 14.08s-4.685 15.632-3.132 20.32c1.559 4.661 12.507 1.552 18.764 1.552 6.244 0 9.349 15.636 10.928 23.432 1.58 7.816 1.6 20.316-1.552 25.015-3.132 4.685-9.396 7.816-10.948 15.612-1.56 7.816 1.572 3.152 4.685 9.389 3.132 6.243 1.572 10.948 1.572 15.64 0 4.684-1.572 12.5-4.685 20.315-3.132 7.817-12.521 9.369-17.205 14.061-4.691 4.685-1.559 10.921-1.559 10.921" fill="none"/>
</svg>
