<?xml version="1.0" encoding="UTF-8" standalone="no"?>
<svg xmlns:rdf="http://www.w3.org/1999/02/22-rdf-syntax-ns#" xmlns="http://www.w3.org/2000/svg" height="243px" width="501px" xmlns:cc="http://creativecommons.org/ns#" xmlns:xlink="http://www.w3.org/1999/xlink" xmlns:dc="http://purl.org/dc/elements/1.1/">
<title>Seastar 3</title>
<desc xmlns:ian_image_library="http://ian.umces.edu/imagelibrary/">
      <ian_image_library:title>Seastar 3</ian_image_library:title>
      <ian_image_library:descr>Illustration of an orange seastar</ian_image_library:descr>
      <ian_image_library:scene>
		<ian_image_library:contains>symbol,vector,illustration,Echinoderm,seastar,starfish</ian_image_library:contains>
        <ian_image_library:when>2005-03-09</ian_image_library:when>
	  </ian_image_library:scene>
   </desc>
    <metadata
		id="metadata-iil-05351897ec5ecc7469d04a039f966201">
      <rdf:RDF>
      <cc:Work
         rdf:about="">
        <dc:format>image/svg+xml</dc:format>
        <dc:type
           rdf:resource="http://purl.org/dc/dcmitype/StillImage" />
        <cc:license
           rdf:resource="http://creativecommons.org/licenses/by-sa/3.0/" />
        <dc:title>Seastar 3</dc:title>
		<dc:date>2005-03-09</dc:date>
        <dc:creator>
			<cc:Agent>
				<dc:title>Tracey Saxby</dc:title>
			</cc:Agent>
		</dc:creator>
		<dc:rights>
          <cc:Agent>
            <dc:title>Tracey Saxby, Integration and Application Network</dc:title>
          </cc:Agent>
        </dc:rights>
        <dc:publisher>
          <cc:Agent>
            <dc:title>Integration and Application Network</dc:title>
          </cc:Agent>
        </dc:publisher>
		<dc:identifier>http://ian.umces.edu/imagelibrary/displayimage-4420.html</dc:identifier>
        <dc:source>http://ian.umces.edu/imagelibrary/displayimage-4420.html</dc:source>
        <dc:language>en-US</dc:language>
        <dc:subject>
          <rdf:Bag>
            <rdf:li>symbol,vector,illustration,Echinoderm,seastar,starfish</rdf:li>
          </rdf:Bag>
        </dc:subject>
        <dc:coverage></dc:coverage>
        <dc:description>Illustration of an orange seastar</dc:description>
        <dc:contributor>
          <cc:Agent>
            <dc:title></dc:title>
          </cc:Agent>
        </dc:contributor>
      </cc:Work>
      <cc:License
         rdf:about="http://creativecommons.org/licenses/by-sa/3.0/">
        <cc:permits
           rdf:resource="http://creativecommons.org/ns#Reproduction" />
        <cc:permits
           rdf:resource="http://creativecommons.org/ns#Distribution" />
        <cc:requires
           rdf:resource="http://creativecommons.org/ns#Notice" />
        <cc:requires
           rdf:resource="http://creativecommons.org/ns#Attribution" />
        <cc:permits
           rdf:resource="http://creativecommons.org/ns#DerivativeWorks" />
        <cc:requires
           rdf:resource="http://creativecommons.org/ns#ShareAlike" />
      </cc:License>
    </rdf:RDF>
  </metadata>
	
 <defs></defs>
 <linearGradient id="ian_symbols_b2d81753e51986b40d7865354d04147a" y2="120.73" gradientUnits="userSpaceOnUse" x2="500.12" y1="120.73" x1=".125">
  <stop stop-color="#C1832C" offset="0"/>
  <stop stop-color="#FDCF60" offset="1"/>
 </linearGradient>
 <path stroke-linejoin="round" d="m264.72 49.079c6.703 1.005 36.495-17.405 64.02-22.598 27.517-5.196 138.9 4.252 139.32 11.297s-48.812 25.912-64.005 30.134c-15.208 4.198-45.189 7.519-45.189 7.519s8.701 17.395 52.712 30.124c44.018 12.726 72.069-23.011 80.946-22.591 23.935 1.127-11.213 53.869-69.652 67.777-26.353 6.266-52.265 2.187-71.542-3.758-19.27-5.951-56.482-30.13-56.482-30.13s17.882 22.297 18.83 41.421c.954 19.125 2.512 23.844 0 37.653s7.536 41.421 0 45.186c-7.529 3.758-52.989-43.195-67.771-52.718-14.794-9.523-22.601-67.773-22.601-67.773s-116.68 28.81-139.31 32.003c-22.642 3.192-50.21 1.06-64.009-5.641-13.827-6.72-23.059-24.03-18.851-26.37 4.202-2.339 16.389 6.125 45.189 0 28.8-6.127 65.63-46.269 75.306-48.954 9.666-2.685 30.12-15.055 30.12-15.055s-25.194-18.854-33.885-30.13c-8.68-11.256-14.764-26.291-7.533-26.355 7.218-.064 22.554 10.488 41.417 15.055 18.864 4.59 26.731-1.591 48.954 3.765 22.2 5.368 57.31 29.114 64 30.133z" stroke="#B75714" stroke-linecap="round" stroke-width=".25" fill="url(#ian_symbols_b2d81753e51986b40d7865354d04147a)"/>
 <path stroke-linejoin="round" d="m315.81 68.775s16.236-.498 22.31.261c6.067.758 20.746 6.395 20.746 6.395" stroke="#B75714" stroke-linecap="round" stroke-width=".25" fill="none"/>
 <path stroke-linejoin="round" d="m151.76 56.611s9.385-3.182 23.725-2.167c11.795.846 19.798 6.324 19.798 6.324" stroke="#B75714" stroke-linecap="round" stroke-width=".25" fill="none"/>
 <path stroke-linejoin="round" d="m231.06 89.88s-18.193-13.007 8.45-15.607c26.643-2.597 19.602 12.946 19.602 12.946" stroke="#B75714" stroke-linecap="round" stroke-width=".25" fill="none"/>
</svg>
