<?xml version="1.0" encoding="UTF-8" standalone="no"?>
<svg xmlns:rdf="http://www.w3.org/1999/02/22-rdf-syntax-ns#" xmlns="http://www.w3.org/2000/svg" height="501px" width="387px" xmlns:cc="http://creativecommons.org/ns#" xmlns:xlink="http://www.w3.org/1999/xlink" xmlns:dc="http://purl.org/dc/elements/1.1/">
<title>Bryozoan colony</title>
<desc xmlns:ian_image_library="http://ian.umces.edu/imagelibrary/">
      <ian_image_library:title>Bryozoan colony</ian_image_library:title>
      <ian_image_library:descr>Illustration of bryozoan colony</ian_image_library:descr>
      <ian_image_library:scene>
		<ian_image_library:contains>symbol,vector,illustration,bryozoan,colony,colonial,invertebrate,Bryozoa,Ectoprocta</ian_image_library:contains>
        <ian_image_library:when>2005-03-05</ian_image_library:when>
	  </ian_image_library:scene>
   </desc>
    <metadata
		id="metadata-iil-86d77cd50beea214c5e3ed836d3d1635">
      <rdf:RDF>
      <cc:Work
         rdf:about="">
        <dc:format>image/svg+xml</dc:format>
        <dc:type
           rdf:resource="http://purl.org/dc/dcmitype/StillImage" />
        <cc:license
           rdf:resource="http://creativecommons.org/licenses/by-sa/3.0/" />
        <dc:title>Bryozoan colony</dc:title>
		<dc:date>2005-03-05</dc:date>
        <dc:creator>
			<cc:Agent>
				<dc:title>Tracey Saxby</dc:title>
			</cc:Agent>
		</dc:creator>
		<dc:rights>
          <cc:Agent>
            <dc:title>Tracey Saxby, Integration and Application Network</dc:title>
          </cc:Agent>
        </dc:rights>
        <dc:publisher>
          <cc:Agent>
            <dc:title>Integration and Application Network</dc:title>
          </cc:Agent>
        </dc:publisher>
		<dc:identifier>http://ian.umces.edu/imagelibrary/displayimage-4356.html</dc:identifier>
        <dc:source>http://ian.umces.edu/imagelibrary/displayimage-4356.html</dc:source>
        <dc:language>en-US</dc:language>
        <dc:subject>
          <rdf:Bag>
            <rdf:li>symbol,vector,illustration,bryozoan,colony,colonial,invertebrate,Bryozoa,Ectoprocta</rdf:li>
          </rdf:Bag>
        </dc:subject>
        <dc:coverage></dc:coverage>
        <dc:description>Illustration of bryozoan colony</dc:description>
        <dc:contributor>
          <cc:Agent>
            <dc:title></dc:title>
          </cc:Agent>
        </dc:contributor>
      </cc:Work>
      <cc:License
         rdf:about="http://creativecommons.org/licenses/by-sa/3.0/">
        <cc:permits
           rdf:resource="http://creativecommons.org/ns#Reproduction" />
        <cc:permits
           rdf:resource="http://creativecommons.org/ns#Distribution" />
        <cc:requires
           rdf:resource="http://creativecommons.org/ns#Notice" />
        <cc:requires
           rdf:resource="http://creativecommons.org/ns#Attribution" />
        <cc:permits
           rdf:resource="http://creativecommons.org/ns#DerivativeWorks" />
        <cc:requires
           rdf:resource="http://creativecommons.org/ns#ShareAlike" />
      </cc:License>
    </rdf:RDF>
  </metadata>
	
 <defs></defs>
 <path d="m155.01 420.28c-1.313 8.407-29.625-1.185-31.408-2.314-1.753-1.144-18.353-2.887-17.838-13.655.507-10.789 21.749-5.786 27.389-3.73 5.63 2.04 23.16 11.27 21.86 19.69z" fill="#AFBDE1"/>
 <path d="m148 424.23c-8.887 0-23.207-4.883-24.682-5.817-.285-.186-1.32-.463-2.415-.757-5.225-1.402-16.098-4.319-15.666-13.365.154-3.28 2.261-7.191 11.423-7.191 6.201 0 13.364 1.792 16.667 2.996 6.147 2.236 23.545 11.569 22.195 20.271-.40 2.57-2.93 3.87-7.52 3.87zm-31.34-26.09c-6.694 0-10.186 2.084-10.379 6.195-.392 8.205 9.931 10.975 14.892 12.306 1.506.403 2.31.626 2.71.888 1.066.675 15.274 5.65 24.116 5.65 3.998 0 6.181-1.003 6.49-2.979 1.261-8.132-16.409-17.268-21.52-19.127-3.11-1.14-10.29-2.94-16.31-2.94z" fill="#5E506C"/>
 <path d="m148.2 418.57c.218-.945 1.123-1.552 2.008-1.34.892.217 1.429 1.143 1.205 2.103-.231.953-1.13 1.546-2.021 1.349-.89-.23-1.43-1.16-1.2-2.11z" fill="#602065"/>
 <path d="m195.36 181.25c-4.67-2.747-6.917-9.438-6.78-15.143.129-5.688 5.562-22.852 8.162-28.227 2.6-5.354 7.692-10.388 10.149-10.054 2.478.32 1.225.156 3.765 4.775 2.519 4.619-4.527 38.676-6.331 42.702-1.81 4.06-4.32 8.72-8.97 5.95z" fill="#AFBDE1"/>
 <path d="m198.02 182.61c-.931 0-1.916-.306-2.929-.909-5.046-2.968-7.169-9.976-7.035-15.604.136-5.991 5.718-23.283 8.214-28.442 2.635-5.425 7.582-10.365 10.38-10.365 2.125.255 2.296.376 2.927 1.878.278.661.696 1.657 1.536 3.184 2.663 4.883-4.656 39.472-6.312 43.167-1.65 3.67-3.6 7.08-6.79 7.08zm8.8-54.26c-2.292 0-7.053 4.505-9.607 9.763-2.658 5.494-7.986 22.578-8.109 28.01-.123 5.15 1.865 11.941 6.522 14.68 3.832 2.281 6.3-1.387 8.223-5.708 1.765-3.938 8.762-37.816 6.349-42.239-.864-1.572-1.295-2.599-1.583-3.281-.442-1.052-.442-1.052-1.786-1.225v.01z" fill="#736384"/>
 <path d="m56.25 239.29c-3.856 4.646-3.76 11.906-1.545 17.158 2.209 5.259 14.122 18.866 18.792 22.712 4.667 3.846 11.801 6.276 14.245 4.86 2.457-1.409 1.215-.694 2.164-6.154.947-5.439-18.804-34.07-22.15-37.052-3.347-2.96-7.659-6.2-11.506-1.53z" fill="#AFBDE1"/>
 <path d="m85.815 284.95c-3.51-.009-8.924-2.316-12.651-5.387-4.477-3.688-16.602-17.345-18.941-22.913-2.119-5.025-2.515-12.706 1.625-17.694 3.492-4.24 8.345-1.988 12.252 1.467 3.128 2.787 23.348 31.623 22.319 37.533-.314 1.805-.384 2.924-.431 3.668-.109 1.724-.271 1.864-1.984 2.847-.548.31-1.285.47-2.189.47zm-25.25-47.49c-1.434 0-2.713.707-3.911 2.161-3.863 4.654-3.468 11.878-1.467 16.622 2.116 5.037 13.88 18.59 18.642 22.512 3.503 2.887 8.791 5.124 11.986 5.149.708 0 1.283-.117 1.664-.337 1.39-.797 1.39-.797 1.466-2.009.049-.766.122-1.92.445-3.781.894-5.137-18.716-33.661-21.983-36.572-2.199-1.94-4.551-3.74-6.842-3.74z" fill="#736384"/>
 <path d="m61.52 245.62c.497.844.201 1.933-.646 2.417-.841.48-1.923.204-2.414-.664-.497-.831-.197-1.923.654-2.407.844-.48 1.922-.21 2.406.65z" fill="#602065"/>
 <path d="m171.88 283.79c2.41 7.638-28.747 16.896-30.877 16.691-2.13-.211-18.233 5.452-22.398-3.846-4.163-9.299 17.661-14.193 23.76-14.888 6.1-.66 27.1-5.58 29.52 2.05z" fill="#AFBDE1"/>
 <path d="m129.25 302.52c-5.698 0-9.442-1.908-11.128-5.672-.83-1.853-.754-3.663.224-5.378 3.768-6.606 20.111-9.804 23.954-10.242.989-.109 2.367-.33 3.994-.59 4.199-.671 9.951-1.591 15.008-1.591 6.476 0 10.097 1.5 11.071 4.585.375 1.186.082 2.445-.87 3.744-5.114 6.977-28.305 13.631-30.426 13.631-.672-.009-1.555.169-2.715.396-2.26.44-5.7 1.11-9.09 1.11zm32.05-22.43c-4.975 0-10.679.912-14.843 1.578-1.647.263-3.043.486-4.042.597-5.901.672-19.93 4.052-23.162 9.72-.815 1.43-.874 2.88-.178 4.434 1.523 3.401 4.851 5.054 10.173 5.054 3.292 0 6.675-.661 8.913-1.098 1.256-.246 2.205-.425 2.707-.425 2.446 0 25.036-6.708 29.791-13.194.754-1.029.989-1.948.716-2.811-.81-2.55-4.2-3.85-10.08-3.85z" fill="#736384"/>
 <path d="m160.51 286.9c-.388-.892.041-1.933.933-2.308.898-.381 1.94.048 2.321.933.381.905-.034 1.933-.939 2.335-.90.36-1.93-.05-2.31-.96z" fill="#602065"/>
 <path d="m170.61 252.33c4.908 6.337-21.088 25.826-23.158 26.378-2.07.531-15.194 11.443-22.331 4.166-7.141-7.257 11.623-19.441 17.11-22.198 5.48-2.76 23.46-14.69 28.38-8.35z" fill="#AFBDE1"/>
 <path d="m131.29 285.89c-2.617 0-4.818-.892-6.543-2.65-1.424-1.448-1.983-3.17-1.661-5.12 1.247-7.541 15.458-16.178 18.909-17.912.881-.443 2.088-1.125 3.513-1.931 5.849-3.306 14.688-8.301 20.65-8.301 2.182 0 3.818.684 4.864 2.032.823 1.063.946 2.473.366 4.191-2.854 8.448-21.889 22.502-23.803 23.012-.344.088-1.25.641-2.301 1.281-3.32 2.02-8.86 5.4-14 5.4zm34.87-34.87c-5.687 0-14.731 5.111-20.136 8.165-1.442.815-2.665 1.506-3.557 1.955-4.517 2.27-17.256 10.55-18.347 17.148-.269 1.624.181 3.003 1.375 4.217 1.521 1.551 3.472 2.337 5.797 2.337 4.846 0 10.232-3.282 13.45-5.244 1.259-.767 2.091-1.274 2.581-1.399 1.435-.383 20.315-14.161 23.076-22.335.468-1.385.402-2.437-.202-3.216-.84-1.11-2.17-1.64-4.03-1.64z" fill="#736384"/>
 <path d="m161.04 259.2c-.674-.711-.646-1.824.062-2.498.715-.674 1.838-.64 2.505.075.681.708.646 1.828-.075 2.499-.70.66-1.82.64-2.48-.08z" fill="#602065"/>
 <path d="m138.53 257.84c-.688-.82-.647-2.137.075-2.907.735-.779 1.893-.749 2.573.075.708.82.66 2.127-.062 2.917-.73.79-1.88.75-2.58-.08z" fill="#602065"/>
 <path d="m21.524 489.34s38.208-51.66 41.752-58.031c3.537-6.372 1.409-14.16 4.241-21.239 2.839-7.079 13.441-9.196 14.149-16.276.711-7.079 3.543-45.295 5.664-62.987 2.127-17.685 9.912-37.494 9.207-44.58-.711-7.073-30.431-70.063-38.212-92-7.788-21.929-26.188-69.345-35.391-81.383-9.201-12.03-25.471-45.974-21.934-46.696 3.54-.715 8.492 1.426 12.031 3.529 3.54 2.127 38.924 75.033 43.869 74.314 4.959-.704 31.844-33.971 34.68-36.092 2.828-2.121 4.244-3.533 7.079-2.829 2.825.708 1.41 3.53-1.419 8.496-2.833 4.938-34.693 38.195-36.109 48.805-1.416 10.612 26.902 60.88 31.865 72.915 4.953 12.025 11.304 43.165 14.84 43.873 3.54.701 106.88-99.794 119.62-118.89 12.729-19.111 93.408-100.49 108.98-114.65 15.56-14.162 38.21-43.889 41.04-44.597 2.832-.704 6.371-.704 7.787 0 1.416.708-.701 7.75-2.838 12.001-2.117 4.244-148.6 156.41-145.07 158.53 3.54 2.137 104.05-2.791 109-3.485 4.948-.718 7.753 2.097 9.162 4.224 1.43 2.126-.66 6.354-5.623 7.069-4.949.708-108.3-2.828-118.9 4.962-10.626 7.777-36.813 31.834-49.543 44.581-12.75 12.733-67.942 59.454-71.479 70.761-3.536 11.313-10.616 41.041-10.616 53.791 0 12.736-4.956 48.113 0 48.113 4.959 0 94.825-32.538 98.357-32.538 3.546 0 5.67-2.117 7.801 2.109 2.117 4.248-2.798 4.942-13.417 9.196-10.613 4.241-92.01 33.969-101.92 48.135-9.908 14.159-29.741 26.888-34.693 38.215s-20.527 30.436-22.647 31.845c-2.127 1.402-6.369 1.402-9.908-1.409-3.539-2.85-1.408-7.79-1.408-7.79z" fill="#E2CDE4"/>
 <path d="m29.312 499.98c-2.34 0-4.721-.867-6.705-2.442-3.808-3.062-1.586-8.352-1.563-8.404.441-.62 38.289-51.81 41.775-58.079 1.836-3.308 2.098-6.996 2.375-10.901.241-3.396.491-6.91 1.837-10.277 1.377-3.435 4.444-5.7 7.409-7.891 3.266-2.412 6.351-4.691 6.705-8.243.219-2.173.637-7.281 1.173-13.829 1.204-14.694 3.022-36.9 4.492-49.168 1.064-8.848 3.504-18.095 5.657-26.252 2.089-7.916 3.893-14.752 3.549-18.214-.371-3.685-8.978-23.313-18.09-44.092-8.088-18.444-16.452-37.516-20.094-47.784-7.584-21.355-26.194-69.312-35.313-81.241-8.309-10.88-24-42.58-22.406-46.836l.102-.271.682-.44c4.102-.829 9.717 1.996 12.403 3.592 1.476.887 6.71 10.59 15.835 27.665 9.913 18.549 24.893 46.582 27.692 46.582 3.166-.45 17.229-16.605 25.632-26.259 4.556-5.234 7.848-9.016 8.809-9.734l.831-.63c2.363-1.804 4.004-2.953 6.687-2.287.892.224 1.483.663 1.758 1.307.672 1.574-.628 4.055-2.849 7.955-.875 1.524-4.21 5.408-8.826 10.782-10.453 12.168-26.248 30.558-27.219 37.833-.982 7.361 13.358 35.604 22.847 54.293 4.04 7.958 7.529 14.83 8.982 18.354 2.04 4.953 4.317 13.134 6.519 21.045 2.747 9.873 6.167 22.159 7.94 22.514 4.845-.936 106.66-100.04 119.08-118.67 12.595-18.908 92.042-99.267 109.06-114.74 8.617-7.833 19.266-20.284 27.822-30.289 7.903-9.241 12.092-14.08 13.45-14.419 2.856-.71 6.654-.703 8.147.039l.194.097.416.67c.687 2.068-1.41 8.346-3.215 11.937-.775 1.555-17.313 19.156-46.475 50.13-39.057 41.483-98.079 104.17-98.602 108.04.055-.186 1.478.135 9.372.135 25.777 0 94.604-3.384 99.093-4.014 5.124-.744 8.119 2.11 9.671 4.453.66.982.7 2.373.104 3.715-.753 1.696-2.748 3.679-6.088 4.16-1.181.169-7.867.104-17.604.001-8.392-.088-19.029-.2-30.252-.2-42.409 0-66.23 1.704-70.803 5.065-10.809 7.911-37.06 32.089-49.483 44.529-3.567 3.562-10.515 9.839-18.56 17.106-20.023 18.089-50.283 45.425-52.791 53.441-3.734 11.947-10.592 41.384-10.592 53.635 0 3.951-.476 10.094-.98 16.598-.98 12.634-2.199 28.356.041 30.777 3.019.215 31.119-9.507 55.912-18.084 25.609-8.859 41.272-14.239 42.863-14.239.932 0 1.761-.153 2.518-.292 2.606-.476 4.344-.101 5.75 2.689.57 1.145.685 2.11.352 2.957-.754 1.918-3.585 2.982-8.726 4.914-1.569.59-3.344 1.256-5.315 2.046-1.251.5-3.483 1.354-6.464 2.493-21.412 8.184-86.57 33.089-95.226 45.456-4.604 6.578-11.256 12.777-17.69 18.771-7.369 6.866-14.329 13.352-16.953 19.354-5.076 11.609-20.735 30.674-22.837 32.07-.971.64-2.326 1-3.802 1zm-26.815-433.45c-.483 0-.95.041-1.393.13-1.868 1.948 12.99 33.768 22.244 45.871 9.934 12.994 29.424 64.505 35.468 81.526 3.629 10.233 11.985 29.287 20.066 47.714 9.146 20.857 17.786 40.558 18.173 44.408.363 3.65-1.376 10.24-3.578 18.584-2.144 8.125-4.574 17.334-5.63 26.11-1.467 12.25-3.284 34.44-4.487 49.13-.537 6.557-.956 11.672-1.175 13.848-.401 4.013-3.667 6.426-7.124 8.979-2.848 2.104-5.793 4.28-7.06 7.439-1.286 3.215-1.53 6.645-1.765 9.962-.273 3.847-.555 7.825-2.504 11.335-3.52 6.329-40.228 55.979-41.789 58.089-.02.083-1.866 4.512 1.316 7.069 2.884 2.291 7.127 2.808 9.292 1.38 2.008-1.334 17.58-20.463 22.457-31.617 2.71-6.2 9.748-12.757 17.198-19.699 6.394-5.958 13.006-12.118 17.546-18.606 8.84-12.63 71.951-36.753 95.709-45.833 2.975-1.138 5.202-1.988 6.449-2.487 1.979-.793 3.761-1.462 5.336-2.054 4.539-1.706 7.538-2.833 8.121-4.318.221-.563.122-1.231-.314-2.105-1.496-2.967-2.812-2.461-4.628-2.129-.812.148-1.704.309-2.705.309-1.529 0-22.368 7.21-42.521 14.182-26.085 9.024-53.059 18.356-55.836 18.356-.441 0-.851-.19-1.184-.551-2.368-2.558-1.625-14.697-.316-31.568.502-6.482.978-12.605.978-16.517 0-12.881 7.028-42.394 10.639-53.947 2.593-8.288 31.778-34.654 53.087-53.905 8.035-7.258 14.974-13.527 18.521-17.07 12.446-12.462 38.758-36.695 49.604-44.632 4.821-3.544 28.184-5.267 71.421-5.267 11.227 0 21.868.112 30.263.2 9.593.101 16.283.176 17.445.009 2.918-.42 4.642-2.109 5.281-3.55.449-1.011.442-2.024-.019-2.71-1.397-2.111-4.071-4.663-8.653-3.999-4.503.632-73.436 4.024-99.24 4.024-9.094 0-9.8-.427-10.102-.609-.737-3.566 42.283-49.542 98.569-109.33 24.444-25.964 45.556-48.387 46.302-49.881 2.522-5.019 3.794-10.876 3.071-11.301-1.232-.613-4.821-.607-7.427.04-1.098.274-6.834 6.982-12.908 14.084-8.576 10.026-19.248 22.505-27.914 30.382-16.997 15.459-96.332 95.693-108.89 114.55-11.14 16.7-114.33 119.12-120.02 119.12-2.43-.472-4.955-9.15-8.885-23.272-2.194-7.882-4.462-16.032-6.479-20.928-1.437-3.485-4.918-10.341-8.948-18.279-10.118-19.929-23.976-47.222-22.951-54.905 1.012-7.583 16.929-26.114 27.462-38.376 4.406-5.13 7.887-9.182 8.711-10.62 1.876-3.294 3.274-5.904 2.795-7.025-.052-.122-.21-.493-1.05-.704-2.249-.558-3.558.392-5.8 2.104l-.839.637c-.872.652-4.475 4.791-8.647 9.583-11.975 13.756-22.994 26.142-26.272 26.607-3.321.046-14.014-19.525-28.763-47.124-6.957-13.019-14.151-26.48-15.449-27.26-1.81-1.044-6.453-3.56-10.258-3.56z" fill="#736384"/>
 <path d="m61.86 368.32c-5.664 2.13-9.203 8.461-9.904 14.118-.711 5.649 2.825 23.396 4.945 29.053 2.124 5.663 7.103 11.32 9.928 11.32 2.833 0 1.385 0 4.932-4.241 3.547-4.254.708-38.93-.708-43.171-1.409-4.25-3.536-9.2-9.193-7.08z" fill="#AFBDE1"/>
 <path d="m66.829 423.33c-3.051 0-8.211-5.775-10.417-11.659-2.039-5.438-5.727-23.325-4.975-29.302.692-5.581 4.126-12.243 10.239-14.542 5.499-2.058 8.217 2.41 9.874 7.404 1.325 3.968 4.471 39.042.613 43.67-1.181 1.412-1.8 2.347-2.209 2.965-.942 1.43-1.152 1.47-3.125 1.47zm-2.449-55c-.713 0-1.5.159-2.337.473-5.672 2.134-8.937 8.594-9.569 13.693-.68 5.406 2.749 23.021 4.917 28.805 2.179 5.811 7.093 10.981 9.438 10.981 1.594 0 1.594 0 2.252-.996.422-.638 1.061-1.602 2.278-3.058 3.354-4.022.582-38.523-.802-42.67-1.245-3.74-2.855-7.22-6.177-7.22z" fill="#5E506C"/>
 <path d="m4.877 171.54c1.327-8.42 31.595 1.872 33.488 3.07 1.903 1.185 19.588 3.312 19.128 14.135-.449 10.807-23.13 5.279-29.155 3.09-6.018-2.2-24.781-11.88-23.461-20.29z" fill="#AFBDE1"/>
 <path d="m46.696 195.72c-6.685 0-14.917-2.086-18.537-3.4-6.563-2.402-25.16-12.2-23.799-20.868.39-2.472 2.879-3.725 7.4-3.725 9.375 0 25.306 5.435 26.884 6.435.308.191 1.359.478 2.576.81 5.577 1.522 17.182 4.688 16.795 13.789-.132 3.18-2.202 6.96-11.319 6.96zm-34.935-26.94c-3.928 0-6.07.957-6.368 2.842-1.19 7.585 15.827 17.053 23.124 19.723 3.551 1.29 11.628 3.337 18.179 3.337 6.653 0 10.11-2.004 10.275-5.958.351-8.268-10.71-11.286-16.026-12.736-1.455-.397-2.415-.659-2.856-.934-1.153-.73-16.998-6.27-26.328-6.27z" fill="#736384"/>
 <path d="m92.83 274.23c4.881-3.574 6.583-10.633 5.742-16.262-.837-5.643-9.016-21.77-12.58-26.654-3.57-4.871-9.877-8.985-12.607-8.23-2.726.759-1.347.364-3.611 5.419-2.267 5.044 9.789 37.674 12.293 41.377 2.505 3.72 5.878 7.9 10.763 4.34z" fill="#AFBDE1"/>
 <path d="m89.219 276.11c-3.12 0-5.513-2.851-7.585-5.932-2.343-3.464-14.807-36.388-12.336-41.884.747-1.668 1.091-2.734 1.319-3.441.53-1.64.72-1.735 2.608-2.261 3.198-.886 9.535 3.434 13.189 8.419 3.428 4.698 11.793 20.938 12.675 26.886.804 5.385-.715 12.928-5.95 16.761-1.323.95-2.641 1.44-3.92 1.44zm-15.111-52.59c-2.125.5-2.125.5-2.497 1.651-.235.729-.59 1.828-1.36 3.548-2.147 4.778 9.801 37.251 12.249 40.871 1.912 2.842 4.308 5.496 6.719 5.471 1.053 0 2.164-.421 3.303-1.251 4.884-3.576 6.292-10.678 5.533-15.763-.798-5.379-8.84-21.428-12.485-26.423-3.11-4.25-8.573-8.11-11.462-8.11z" fill="#736384"/>
 <path d="m63.276 376.44c0 .979-.8 1.77-1.776 1.77-.974 0-1.764-.79-1.764-1.77s.79-1.757 1.764-1.757c.976 0 1.776.78 1.776 1.76z" fill="#602065"/>
 <path d="m296.15 42.785c4.825 2.127 7.842 8.464 8.44 14.122.599 5.66-2.417 23.389-4.207 29.053-1.817 5.664-6.052 11.331-8.469 11.331-2.416 0-1.19-.013-4.206-4.254s-.606-38.924.6-43.165c1.22-4.252 3.02-9.214 7.85-7.087z" fill="#AFBDE1"/>
 <path d="m291.91 97.813c-1.781 0-1.961-.099-2.754-1.507-.35-.621-.876-1.556-1.879-2.967-3.281-4.615-.604-39.645.523-43.61.799-2.788 2.285-7.975 6.191-7.975.735 0 1.53.186 2.364.553 5.225 2.303 8.158 8.965 8.749 14.545.627 5.928-2.503 23.808-4.228 29.265-1.73 5.41-6.02 11.696-8.96 11.696zm2.09-55.014c-2.74 0-4.112 3.468-5.187 7.217-1.18 4.151-3.537 38.693-.676 42.717 1.034 1.455 1.577 2.42 1.938 3.06.549.975.549.975 1.843.975 1.962 0 6.108-5.164 7.971-10.968 1.838-5.813 4.754-23.46 4.186-28.838-.541-5.109-3.316-11.576-8.132-13.698-.70-.309-1.36-.465-1.94-.465z" fill="#736384"/>
 <path d="m294.95 50.906c0 .983.66 1.777 1.497 1.777.831 0 1.504-.793 1.504-1.777 0-.96-.673-1.77-1.504-1.77-.84 0-1.5.810-1.5 1.77z" fill="#602065"/>
 <path d="m126.74 369.72c-5.143-3.186-12.318-2.109-17.229.783-4.918 2.906-16.783 16.555-19.965 21.688-3.179 5.139-4.615 12.545-2.89 14.785 1.733 2.232.861 1.096 6.378 1.313 5.514.197 31.231-23.239 33.726-26.956 2.5-3.73 5.12-8.43-.02-11.61z" fill="#AFBDE1"/>
 <path d="m88.527 408.91c-1.027 0-1.344-.407-2.282-1.616-1.864-2.419-.447-10.037 2.858-15.381 3.063-4.94 14.963-18.802 20.144-21.863 5.521-3.252 13.07-3.688 17.771-.777 1.708 1.059 2.744 2.379 3.078 3.924.588 2.717-1.045 5.654-2.898 8.425-2.285 3.405-28.052 27.049-34.09 27.189l-1.498-.03c-1.034 0-1.754.051-2.283.089l-.802.04zm30.873-40.61c-3.254 0-6.761.966-9.621 2.65-4.684 2.769-16.529 16.26-19.786 21.514-3.264 5.277-4.352 12.331-2.92 14.19.904 1.165.958 1.21 1.455 1.21l.726-.038c.546-.039 1.289-.092 2.357-.092l1.448.03c5.295.04 30.883-23.167 33.272-26.726 1.724-2.578 3.25-5.286 2.745-7.622-.276-1.274-1.129-2.339-2.607-3.256-1.97-1.21-4.41-1.85-7.07-1.85z" fill="#5E506C"/>
 <path d="m121.18 375.8c-.773.592-1.882.449-2.478-.326-.599-.77-.453-1.879.313-2.484.779-.586 1.886-.436 2.488.333.59.77.45 1.89-.32 2.48z" fill="#602065"/>
 <path d="m228.38 132.55c-5.704-.375-11.416 3.9-14.458 8.72-3.05 4.833-7.74 22.239-8.394 28.206-.667 5.96 1.075 13.07 3.451 14.22 2.383 1.144 1.178.568 5.997-1.838 4.813-2.403 17.42-34.816 18.066-39.2.64-4.41.98-9.73-4.67-10.11z" fill="#AFBDE1"/>
 <path d="m210.5 184.79c-.465.02-.897-.206-1.751-.616-2.588-1.253-4.442-8.559-3.749-14.751.691-6.31 5.422-23.596 8.471-28.427 2.824-4.473 8.31-8.987 14.199-8.987l.735.024c1.845.124 3.245.763 4.163 1.902 1.698 2.106 1.477 5.477.983 8.805-.606 4.111-13.125 36.982-18.351 39.591-1.592.794-2.516 1.386-3.13 1.78-.67.45-1.05.70-1.56.70zm17.79-51.72c-6.138 0-11.271 4.258-13.936 8.478-2.924 4.633-7.65 21.91-8.315 27.984-.684 6.105 1.198 12.742 3.16 13.692 1.236.594 1.094.777 2.308 0 .634-.405 1.587-1.015 3.228-1.834 4.548-2.271 17.148-34.508 17.782-38.808.459-3.093.684-6.203-.762-7.996-.738-.915-1.856-1.411-3.419-1.515-.02.01-.03.01-.05.01z" fill="#736384"/>
 <path d="m96.308 146.85c3.798 7.607-18.305 19.553-20.03 19.513-1.715-.034-12.923 7.032-18.52-2.114-5.599-9.152 10.293-15.915 14.897-17.089 4.616-1.2 19.841-7.91 23.653-.31z" fill="#AFBDE1"/>
 <path d="m66.045 169.46c-3.791 0-6.729-1.661-8.733-4.936-1.395-2.28-1.631-4.595-.703-6.88 2.351-5.784 11.915-9.968 15.917-10.989.73-.189 1.734-.521 2.918-.912 3.606-1.19 9.056-2.988 13.591-2.988 3.851 0 6.455 1.299 7.739 3.862.865 1.732.594 3.756-.803 6.017-4.176 6.754-17.872 14.228-19.686 14.253-.27 0-1.069.305-1.842.6-2.056.80-5.166 1.98-8.398 1.98zm22.991-25.66c-4.368 0-9.721 1.766-13.264 2.935-1.21.399-2.236.737-2.985.932-3.844.98-13.007 4.952-15.209 10.37-.797 1.961-.586 3.959.626 5.941 1.826 2.985 4.391 4.436 7.841 4.436 3.04 0 6.041-1.145 8.026-1.903 1.151-.439 1.772-.669 2.193-.669 1.166-.055 14.921-7.099 18.956-13.986 1.075-1.835 1.283-3.44.619-4.77-1.107-2.21-3.332-3.29-6.803-3.29z" fill="#736384"/>
 <path d="m226.05 140.45c-.436.875-1.443 1.273-2.267.875-.816-.395-1.137-1.433-.722-2.308.429-.877 1.43-1.272 2.26-.877.82.39 1.13 1.45.73 2.32z" fill="#602065"/>
 <path d="m230.75 184.93c-3.479-3.271-4.111-8.563-2.873-12.464 1.239-3.911 9.313-14.214 12.614-17.161 3.314-2.961 8.699-4.977 10.775-4.027 2.069.95 1.015.48 2.294 4.401 1.273 3.934-11.531 25.445-13.887 27.729-2.33 2.29-5.41 4.78-8.91 1.52z" fill="#AFBDE1"/>
 <path d="m234.21 187.02c-1.318 0-2.602-.574-3.816-1.706-3.78-3.555-4.213-9.232-3.015-13.004 1.319-4.165 9.585-14.555 12.764-17.393 3.372-3.012 9.066-5.153 11.342-4.112 1.452.667 1.62.783 1.881 2.076.107.535.269 1.34.692 2.638 1.398 4.322-11.813 26.126-14.02 28.267-1.71 1.66-3.6 3.22-5.82 3.22zm15.74-35.46c-2.473 0-6.559 1.853-9.109 4.131-3.356 2.997-11.284 13.206-12.463 16.929-1.103 3.47-.718 8.682 2.732 11.925 2.813 2.621 5.743.889 8.2-1.514 2.286-2.217 14.947-23.509 13.755-27.194-.442-1.354-.611-2.197-.724-2.755-.164-.814-.164-.814-1.291-1.332-.27-.12-.65-.19-1.1-.19z" fill="#736384"/>
 <path d="m18.689 195.65c-.708-8.496 31.139-5.654 33.267-4.949 2.113.705 19.805-1.412 21.933 9.193 2.117 10.609-21.231 10.619-27.607 9.904-6.362-.70-26.889-5.65-27.593-14.14z" fill="#AFBDE1"/>
 <path d="m51.993 210.58c-2.399 0-4.446-.118-5.77-.267-6.944-.772-27.33-5.873-28.055-14.625-.087-1.045.248-1.987.995-2.799 2.843-3.09 11.455-3.739 18.178-3.739 7.222 0 13.811.729 14.779 1.05.347.116 1.439.146 2.704.181 5.774.161 17.79.495 19.577 9.405.398 1.995-.021 3.764-1.248 5.258-4.097 5-16.163 5.54-21.16 5.54zm-14.652-20.38c-9.208 0-15.391 1.208-17.409 3.402-.548.596-.784 1.252-.722 2.005.678 8.177 21.343 13.028 27.129 13.672 1.297.146 3.302.26 5.653.26 3.783 0 16.431-.372 20.353-5.153 1.032-1.258 1.369-2.694 1.03-4.39-1.623-8.093-13.077-8.412-18.581-8.565-1.513-.042-2.512-.07-3.004-.234-.748-.24-7.067-.99-14.449-.99z" fill="#736384"/>
 <path d="m248.31 157.71c.3.998-.211 2.042-1.164 2.311-.946.289-1.98-.29-2.28-1.293-.307-.984.218-2.032 1.157-2.312.96-.29 1.96.30 2.28 1.29z" fill="#602065"/>
 <path d="m30.366 197.42c0 .97-.792 1.763-1.767 1.763-.98 0-1.777-.793-1.777-1.763s.797-1.773 1.777-1.773c.975 0 1.767.80 1.767 1.77z" fill="#602065"/>
 <path d="m118.1 150.08c4.04 7.512-29.326 24.257-31.76 24.516-2.426.256-19.516 9.843-25.827.98-6.303-8.846 17.359-18.914 24.084-21.007 6.735-2.09 29.463-11.99 33.503-4.49z" fill="#AFBDE1"/>
 <path d="m68.885 179.85c-3.96 0-6.919-1.336-8.796-3.971-1.182-1.659-1.458-3.459-.821-5.352 2.667-7.918 20.824-15.104 25.175-16.458 1.086-.336 2.589-.877 4.363-1.515 6.382-2.295 16.027-5.764 22.712-5.764 3.586 0 5.955 1.023 7.043 3.041.624 1.159.521 2.539-.304 4.102-4.375 8.288-29.277 20.907-31.86 21.181-.413.044-1.547.492-2.86 1.012-3.524 1.39-9.417 3.72-14.655 3.72zm42.635-32.01c-6.502 0-16.044 3.432-22.358 5.702-1.792.645-3.31 1.19-4.406 1.53-5.719 1.78-22.149 8.83-24.495 15.793-.532 1.579-.309 3.021.682 4.412 1.669 2.344 4.342 3.532 7.944 3.532 5.039 0 10.816-2.285 14.267-3.65 1.554-.615 2.58-1.021 3.135-1.079 1.802-.191 26.746-12.485 31.046-20.63.662-1.253.763-2.273.308-3.118-.90-1.64-2.96-2.48-6.13-2.48z" fill="#736384"/>
 <path d="m107.66 155.09c-.381-.909.044-1.947.943-2.332.895-.371 1.936.034 2.317.943.375.895-.031 1.947-.936 2.318-.90.39-1.94-.04-2.32-.93z" fill="#602065"/>
 <path d="m24.604 88.931c4.033-2.233 8.366 3.44 8.227 4.006-.146.579 2.559 3.312-2.355 6.327-4.925 3.016-7.131-1.293-7.4-2.651-.259-1.355-2.501-5.46 1.528-7.682z" fill="#88759A"/>
 <path d="m27.284 100.84c-2.951 0-4.455-2.777-4.721-4.122-.04-.208-.129-.478-.232-.798-.562-1.744-1.732-5.374 2.021-7.443.699-.387 1.449-.583 2.229-.583 3.069 0 5.529 2.941 5.991 3.531.891 1.138.804 1.49.767 1.641.618 1.384 1.721 4.002-2.589 6.647-1.222.747-2.387 1.127-3.466 1.127zm-.703-11.904c-.601 0-1.181.152-1.723.453-2.768 1.526-2.274 3.903-1.532 6.207.119.37.218.683.263.919.128.647 1.191 3.276 3.695 3.276.883 0 1.865-.327 2.918-.972 3.544-2.175 2.777-3.996 2.318-5.084l-.197-.925c-.143-.390-2.808-3.874-5.742-3.874z" fill="#5E506C"/>
 <path d="m84.048 120.78c4.02-2.236 8.366 3.438 8.223 4.007-.139.564 2.553 3.311-2.362 6.327-4.914 3.012-7.123-1.294-7.392-2.641-.256-1.37-2.495-5.48 1.531-7.7z" fill="#88759A"/>
 <path d="m86.724 132.68c-2.946 0-4.452-2.769-4.72-4.109-.04-.211-.129-.484-.232-.807-.559-1.746-1.722-5.38 2.024-7.446.697-.387 1.446-.584 2.227-.584 3.08 0 5.541 2.956 6.003 3.548.879 1.126.791 1.478.753 1.627.618 1.368 1.728 3.992-2.596 6.646-1.219.74-2.382 1.12-3.459 1.12zm-.702-11.9c-.601 0-1.18.152-1.72.454-2.764 1.523-2.274 3.904-1.535 6.212.12.373.219.689.263.927.128.643 1.193 3.262 3.693 3.262.882 0 1.861-.326 2.912-.97 3.557-2.183 2.755-4.081 2.323-5.1l-.195-.907c-.141-.38-2.803-3.87-5.741-3.87z" fill="#5E506C"/>
 <path d="m13.984 97.426c4.034-2.236 8.373 3.441 8.23 4-.143.572 2.556 3.322-2.359 6.334-4.918 3.012-7.127-1.291-7.396-2.652-.254-1.36-2.497-5.461 1.525-7.684z" fill="#88759A"/>
 <path d="m16.668 109.33c-2.952 0-4.456-2.776-4.721-4.121-.04-.209-.129-.482-.233-.804-.56-1.743-1.726-5.369 2.018-7.437.699-.388 1.45-.584 2.231-.584 3.096 0 5.56 2.971 6.021 3.566.863 1.111.774 1.457.736 1.605.619 1.376 1.726 4.003-2.592 6.65-1.218.74-2.382 1.12-3.46 1.12zm-.705-11.9c-.602 0-1.183.153-1.726.454-2.759 1.525-2.268 3.9-1.528 6.203.12.373.219.688.264.926.128.646 1.189 3.273 3.695 3.273.882 0 1.863-.327 2.915-.971 3.551-2.177 2.781-4.006 2.32-5.099l-.196-.916c-.144-.39-2.813-3.87-5.744-3.87z" fill="#5E506C"/>
 <path d="m158.31 374.82c6.439-3.458 11.436 1.865 11.096 2.553-.347.66 2.961 3.097-4.962 7.645-7.917 4.561-10.129.244-10.19-1.205-.06-1.47-2.37-5.54 4.05-9z" fill="#88759A"/>
 <path d="m158.37 387.57c-3.384 0-4.585-2.521-4.637-3.743-.008-.215-.074-.488-.146-.813-.436-1.949-1.247-5.578 4.478-8.662 1.508-.81 3.057-1.22 4.605-1.22 3.696 0 6.331 2.317 7.027 3.44l.153.246.026.778c.838 2.076.761 4.462-5.17 7.866-2.42 1.38-4.56 2.09-6.33 2.09zm4.29-13.39c-1.373 0-2.756.369-4.11 1.096-5.026 2.708-4.354 5.716-3.952 7.514.089.398.161.737.17.999.024.576.706 2.738 3.592 2.738 1.592 0 3.548-.661 5.814-1.967 5.962-3.422 5.207-5.434 4.844-6.4l-.083-1.035c-.15-.33-2.58-2.94-6.27-2.94z" fill="#5E506C"/>
 <path d="m15.799 176.02c-.228.949-1.177 1.528-2.131 1.303-.946-.225-1.535-1.188-1.303-2.138.228-.963 1.191-1.539 2.138-1.3.949.23 1.527 1.19 1.296 2.14z" fill="#602065"/>
 <path d="m57.184 442.03c5.157-2.817 9.803 2.709 9.574 3.314-.234.62 2.744 3.221-3.577 6.965-6.331 3.717-8.546-.578-8.709-1.981-.172-1.39-2.438-5.5 2.712-8.29z" fill="#88759A"/>
 <path d="m58.678 454.31c-3.226 0-4.577-2.643-4.726-3.922-.024-.203-.102-.472-.189-.789-.492-1.781-1.516-5.488 3.172-8.028 3.89-2.126 8.574.789 9.962 2.796.353.511.461.869.351 1.163.591 1.352 1.649 4.002-3.799 7.229-1.755 1.03-3.36 1.55-4.771 1.55zm1.517-12.55c-.943 0-1.873.246-2.761.731-3.959 2.146-3.18 4.966-2.664 6.832.104.378.19.699.22.944.069.597.943 2.999 3.688 2.999 1.223 0 2.649-.473 4.238-1.406 4.677-2.77 3.911-4.689 3.499-5.722l-.146-.977c-.159-.37-2.758-3.39-6.074-3.39z" fill="#5E506C"/>
 <path d="m46.571 457.61c5.156-2.818 9.806 2.702 9.567 3.308-.231.62 2.747 3.227-3.578 6.958-6.334 3.716-8.54-.579-8.703-1.975-.169-1.41-2.436-5.5 2.714-8.29z" fill="#88759A"/>
 <path d="m48.057 469.87c-3.219 0-4.569-2.638-4.718-3.915-.025-.205-.103-.476-.191-.796-.49-1.777-1.511-5.477 3.174-8.016 3.914-2.14 8.603.8 9.974 2.813.342.502.443.855.329 1.146.596 1.345 1.657 3.998-3.798 7.217-1.754 1.03-3.359 1.55-4.77 1.55zm1.528-12.54c-.945 0-1.875.246-2.763.731-3.956 2.145-3.18 4.958-2.666 6.819.105.381.191.704.221.951.069.596.942 2.992 3.68 2.992 1.223 0 2.649-.474 4.239-1.406 4.682-2.762 3.914-4.684 3.5-5.716l-.148-.974c-.154-.38-2.744-3.39-6.063-3.39z" fill="#5E506C"/>
 <path d="m178.94 368.42c5.187-2.804 9.407 1.852 9.142 2.41-.265.571 2.499 2.716-3.894 6.426-6.392 3.696-8.291-.021-8.379-1.272-.09-1.25-2.06-4.77 3.13-7.57z" fill="#88759A"/>
 <path d="m179.39 379.37c-2.924 0-4.029-2.26-4.106-3.354-.519-2.243-1.314-5.518 3.405-8.06 1.171-.633 2.385-.954 3.608-.954 3.115 0 5.437 2.081 6.074 3.089l.154.244.026.716c.754 1.771.746 3.839-4.103 6.653-1.9 1.1-3.6 1.66-5.05 1.66zm2.91-11.32c-1.047 0-2.094.279-3.111.829-4.009 2.16-3.415 4.604-3.022 6.223.082.337.147.623.164.844.035.503.659 2.382 3.063 2.382 1.258 0 2.784-.513 4.533-1.524 4.732-2.747 4.084-4.443 3.773-5.258l-.092-.937c-.15-.25-2.3-2.55-5.3-2.55z" fill="#5E506C"/>
 <path d="m327.54 165.32c5.193-2.822 9.428 1.848 9.142 2.417-.252.551 2.506 2.726-3.88 6.409-6.393 3.697-8.298-.031-8.387-1.272-.07-1.25-2.05-4.76 3.13-7.56z" fill="#88759A"/>
 <path d="m328.01 176.26c-2.929 0-4.037-2.258-4.115-3.352-.514-2.248-1.301-5.51 3.397-8.05 1.175-.638 2.394-.962 3.621-.962 3.142 0 5.448 2.094 6.074 3.108l.153.249.01.717c.773 1.747.777 3.821-4.087 6.627-1.9 1.09-3.6 1.65-5.05 1.65zm2.91-11.32c-1.051 0-2.102.281-3.123.836-3.991 2.158-3.403 4.594-3.016 6.206.083.341.148.63.163.853.036.5.662 2.377 3.072 2.377 1.26 0 2.783-.512 4.531-1.523 4.743-2.735 4.081-4.437 3.763-5.254l-.097-.919c-.14-.29-2.27-2.59-5.28-2.59z" fill="#5E506C"/>
 <path d="m353.74 21.649c5.187-2.798 9.407 1.868 9.148 2.426-.266.552 2.484 2.713-3.894 6.403-6.385 3.706-8.305-.024-8.387-1.263-.08-1.229-2.06-4.765 3.13-7.566z" fill="#88759A"/>
 <path d="m354.2 32.6c-2.941 0-4.041-2.257-4.113-3.351-.512-2.251-1.296-5.522 3.404-8.06 1.169-.63 2.379-.95 3.599-.95 3.104 0 5.438 2.083 6.083 3.092l.154.241.036.723c.748 1.764.739 3.833-4.106 6.635-1.91 1.108-3.61 1.67-5.05 1.67zm2.89-11.315c-1.044 0-2.088.277-3.102.824-3.993 2.156-3.384 4.698-3.02 6.217.082.343.148.634.162.856.03.469.674 2.372 3.069 2.372 1.261 0 2.785-.514 4.532-1.528 4.729-2.736 4.082-4.432 3.771-5.247l-.085-.93c-.17-.252-2.32-2.564-5.33-2.564z" fill="#5E506C"/>
 <path d="m361.42 27.037c5.187-2.802 9.407 1.858 9.143 2.423-.252.568 2.505 2.716-3.888 6.426-6.385 3.696-8.297-.034-8.379-1.273s-2.07-4.779 3.13-7.576z" fill="#88759A"/>
 <path d="m361.89 38.001c-2.941 0-4.041-2.26-4.113-3.354-.521-2.255-1.317-5.534 3.398-8.071 1.169-.632 2.381-.952 3.603-.952 3.106 0 5.433 2.082 6.073 3.089l.153.242.033.727c.765 1.762.766 3.833-4.098 6.655-1.9 1.104-3.6 1.664-5.04 1.664zm2.89-11.332c-1.046 0-2.091.278-3.106.827-4.005 2.154-3.41 4.604-3.017 6.225.084.343.15.634.165.857.031.472.675 2.377 3.07 2.377 1.259 0 2.781-.512 4.525-1.522 4.745-2.753 4.087-4.449 3.771-5.264l-.1-.921c-.16-.270-2.3-2.579-5.31-2.579z" fill="#5E506C"/>
 <path d="m305.36 164.18c7.543-4.041 13.363 2.117 12.954 2.896-.395.793 3.438 3.591-5.841 8.914-9.284 5.333-11.837.344-11.912-1.348-.06-1.7-2.72-6.4 4.8-10.46z" fill="#88759A"/>
 <path d="m305.32 178.92c-3.851 0-5.223-2.859-5.283-4.244-.009-.259-.084-.583-.168-.967-.49-2.237-1.402-6.399 5.24-9.979 1.766-.946 3.576-1.425 5.383-1.425 4.28 0 7.36 2.712 8.109 3.95l.152.252.021.822c.683 1.7 1.778 4.638-6.043 9.125-2.85 1.64-5.34 2.48-7.41 2.48zm5.17-15.58c-1.632 0-3.276.438-4.888 1.3-5.948 3.206-5.176 6.729-4.714 8.834.101.459.182.849.191 1.151.029.679.838 3.239 4.238 3.239 1.884 0 4.202-.783 6.891-2.328 7.053-4.046 6.166-6.423 5.74-7.565-.147-.395-.287-.768-.107-1.129-.14-.42-3.02-3.49-7.35-3.49z" fill="#5E506C"/>
 <path d="m154.89 302.9c2.403 7.651-28.75 16.888-30.877 16.691-2.131-.211-18.233 5.446-22.403-3.846-4.166-9.313 17.668-14.193 23.764-14.874 6.1-.69 27.11-5.62 29.52 2.03z" fill="#AFBDE1"/>
 <path d="m112.27 321.63c-5.701 0-9.447-1.907-11.135-5.669-.832-1.859-.755-3.673.229-5.392 3.786-6.621 20.116-9.787 23.955-10.215.975-.11 2.335-.33 3.94-.588 4.216-.68 9.992-1.611 15.074-1.611 6.467 0 10.084 1.501 11.058 4.59.373 1.189.079 2.451-.875 3.75-5.115 6.97-28.304 13.623-30.425 13.624-.668-.009-1.551.169-2.711.396-2.29.44-5.73 1.11-9.12 1.11zm32.06-22.43c-4.999 0-10.726.923-14.908 1.597-1.625.262-3.002.484-3.99.595-5.026.561-19.851 3.901-23.164 9.695-.82 1.433-.879 2.887-.182 4.446 1.525 3.398 4.855 5.05 10.181 5.05 3.292 0 6.673-.659 8.911-1.096 1.255-.245 2.201-.423 2.706-.424 2.443 0 25.031-6.708 29.787-13.188.757-1.031.992-1.953.721-2.818-.82-2.57-4.2-3.87-10.07-3.87z" fill="#736384"/>
 <path d="m143.52 306.01c-.381-.892.034-1.927.939-2.321.899-.375 1.927.041 2.321.953.381.885-.041 1.933-.939 2.308-.90.38-1.94-.05-2.32-.94z" fill="#602065"/>
 <path d="m143.37 241.75c6.167 5.776-15.381 33.427-17.301 34.543-1.93 1.103-12.59 16.215-21.157 9.925-8.546-6.263 7.406-24.152 12.226-28.499 4.82-4.35 20.07-21.75 26.23-15.97z" fill="#AFBDE1"/>
 <path d="m109.44 288.26c-1.74 0-3.368-.547-4.839-1.627-1.667-1.222-2.568-2.929-2.677-5.073-.432-8.515 11.809-21.481 14.862-24.235.778-.7 1.828-1.741 3.067-2.969 5.395-5.348 14.425-14.298 20.448-14.298 1.349 0 2.501.439 3.424 1.305 1.033.967 1.439 2.49 1.208 4.527-1.122 9.89-16.846 29.827-18.603 30.849-.319.183-1.089.999-1.98 1.943-3.16 3.35-9.03 9.58-14.91 9.58zm30.86-47.16c-5.593 0-14.431 8.761-19.712 13.996-1.254 1.243-2.316 2.295-3.104 3.003-4.01 3.616-14.899 15.881-14.517 23.405.093 1.84.83 3.242 2.25 4.283 1.288.946 2.708 1.425 4.221 1.425 5.425 0 11.101-6.018 14.149-9.25 1.162-1.231 1.788-1.886 2.218-2.132 1.322-.769 16.996-20.446 18.086-30.061.192-1.691-.105-2.918-.884-3.646-.74-.67-1.63-1.01-2.72-1.01z" fill="#736384"/>
 <path d="m186.97 160.27c8.005.061 7.216 32.548 6.365 34.502-.844 1.978-.429 19.033-10.551 20.136-10.136 1.113-8.066-21.181-6.841-27.188 1.22-6.02 3-27.51 11.02-27.45z" fill="#AFBDE1"/>
 <path d="m182.06 215.47c-1.815 0-3.343-.744-4.541-2.21-4.82-5.902-2.844-21.981-2.097-25.645.198-.968.411-2.338.661-3.955 1.387-8.944 3.708-23.913 10.849-23.913 1.379.01 2.563.788 3.553 2.312 4.648 7.154 4.177 30.958 3.322 32.922-.136.319-.261 1.355-.405 2.555-.661 5.505-2.035 16.961-10.569 17.892-.26.02-.52.04-.77.04zm4.9-54.68c-6.271 0-8.594 14.98-9.842 23.028-.254 1.637-.469 3.024-.67 4.004-1.148 5.632-2.27 19.69 1.882 24.774 1.146 1.403 2.565 1.99 4.39 1.79 7.708-.84 9.017-11.739 9.645-16.977.172-1.437.287-2.385.482-2.845.595-1.366 1.316-24.929-3.238-31.938-.79-1.22-1.65-1.82-2.64-1.83z" fill="#736384"/>
 <path d="m152.09 274.89c4.336 6.732-23.273 23.886-25.377 24.24-2.114.368-16.14 10.075-22.617 2.206s13.287-18.345 18.988-20.626c5.72-2.26 24.68-12.56 29.01-5.82z" fill="#AFBDE1"/>
 <path d="m111.08 304.92c-3.118 0-5.602-1.097-7.382-3.259-1.291-1.568-1.697-3.333-1.207-5.246 1.886-7.36 16.812-14.76 20.405-16.198.926-.367 2.2-.945 3.704-1.627 5.691-2.582 14.291-6.484 20.225-6.484 2.724 0 4.646.839 5.71 2.494.73 1.133.726 2.554-.011 4.223-3.459 7.831-23.614 20.461-25.719 20.816-.342.06-1.283.526-2.372 1.066-3.18 1.59-8.49 4.22-13.35 4.22zm35.74-31.76c-5.708 0-14.184 3.846-19.793 6.391-1.523.691-2.813 1.276-3.75 1.647-5.518 2.207-18.161 9.171-19.778 15.486-.408 1.593-.081 3.007 1.001 4.322 1.594 1.937 3.745 2.878 6.575 2.878 4.614 0 9.794-2.57 12.889-4.106 1.304-.647 2.166-1.074 2.66-1.161 1.463-.246 21.55-12.534 24.939-20.208.594-1.346.623-2.404.088-3.235-.88-1.37-2.46-2.02-4.84-2.02z" fill="#736384"/>
 <path d="m141.96 280.88c-.613-.749-.483-1.872.279-2.485.762-.592 1.885-.476 2.484.307.613.755.483 1.879-.286 2.464-.76.61-1.87.48-2.47-.29z" fill="#602065"/>
 <path d="m260.84 216.64c-1.709 7.124-33.88-1.787-35.656-3.049-1.763-1.26-18.822-5.181-17.835-14.5 1-9.309 22.736-1.828 28.454.783 5.75 2.63 26.76 9.65 25.05 16.77z" fill="#AFBDE1"/>
 <path d="m253.57 219.89c-10.225 0-27.256-4.857-28.692-5.879-.297-.212-1.319-.592-2.503-1.032-5.317-1.976-16.382-6.088-15.549-13.949.246-2.283 1.833-5.004 7.999-5.004 7.132 0 17.357 3.615 21.192 5.366.927.423 2.252.961 3.815 1.597 8.621 3.502 23.05 9.364 21.513 15.767-.50 2.07-3.12 3.12-7.78 3.12zm-38.74-24.81c-4.327 0-6.668 1.369-6.958 4.069-.747 7.052 9.803 10.974 14.874 12.858 1.407.523 2.336.868 2.745 1.16 1.102.783 17.894 5.685 28.086 5.685 2.828 0 6.296-.405 6.758-2.332 1.327-5.529-13.126-11.4-20.89-14.555-1.581-.642-2.92-1.187-3.856-1.614-3.76-1.74-13.79-5.29-20.75-5.29z" fill="#736384"/>
 <path d="m241.99 232.94c-4.173 8.496-31.925-4.489-33.185-6.126-1.273-1.644-16.276-7.556-12.042-18.744 4.241-11.198 22.492-.66 27.073 2.873 4.61 3.57 22.32 13.48 18.16 22z" fill="#AFBDE1"/>
 <path d="m235.5 236.33c-9.498 0-25.94-7.672-27.107-9.189-.195-.251-1.067-.794-1.99-1.37-4.438-2.763-13.671-8.513-10.126-17.878 1.346-3.554 4.121-5.355 8.247-5.355 6.997 0 16.249 5.389 19.634 7.999.736.571 1.812 1.305 3.078 2.17 6.61 4.516 18.913 12.92 15.227 20.471-1.03 2.09-3.37 3.15-6.96 3.15zm-30.98-32.75c-3.647 0-6.093 1.575-7.269 4.68-3.24 8.562 5.5 14.004 9.701 16.621 1.284.8 1.968 1.235 2.265 1.618.958 1.183 16.823 8.783 26.279 8.783 3.16 0 5.187-.864 6.023-2.567 3.289-6.738-8.528-14.811-14.878-19.147-1.288-.88-2.38-1.626-3.128-2.206-3.29-2.53-12.26-7.77-18.99-7.77z" fill="#736384"/>
 <path d="m283.78 59.874c7.332.899 3.017 31.185 2.022 32.947-1.001 1.729-2.491 17.74-11.886 17.706-9.4-.021-5.044-20.643-3.268-26.129 1.8-5.504 5.79-25.422 13.14-24.527z" fill="#AFBDE1"/>
 <path d="m273.94 111.05h-.032c-1.857-.004-3.339-.749-4.402-2.214-4.163-5.737-.492-21.103.64-24.599.288-.885.633-2.144 1.04-3.63 2.183-7.96 5.835-21.284 12.11-21.284 1.756.182 2.746.999 3.484 2.462 3.73 7.384.407 29.633-.528 31.294-.165.285-.408 1.298-.665 2.371-1.2 5.056-3.73 15.596-11.64 15.596zm9.76-50.657c-5.882 0-9.535 13.327-11.499 20.49-.413 1.505-.763 2.78-1.055 3.676-1.479 4.569-4.413 18.665-.787 23.662.868 1.197 2.032 1.78 3.56 1.783l.028.523v-.523c7.081 0 9.478-9.996 10.629-14.799.353-1.468.547-2.252.774-2.646.701-1.244 3.979-23.422.504-30.304-.58-1.148-1.279-1.757-2.138-1.862.01.004 0 .004 0 .004z" fill="#736384"/>
 <path d="m319.86 37.932c7.338.888 3.016 31.197 2.028 32.95-.994 1.74-2.479 17.73-11.892 17.709-9.388-.024-5.045-20.636-3.254-26.13 1.77-5.494 5.79-25.411 13.11-24.529z" fill="#AFBDE1"/>
 <path d="m310.02 89.114h-.02c-1.858-.005-3.339-.752-4.401-2.22-4.176-5.768-.485-21.107.651-24.595.281-.869.618-2.104 1.018-3.562 2.187-7.988 5.846-21.357 12.127-21.357 1.746.179 2.736.994 3.477 2.454 3.734 7.377.414 29.64-.523 31.304-.161.283-.391 1.241-.655 2.351-1.22 5.072-3.74 15.625-11.68 15.625zm9.76-50.663c-5.881 0-9.541 13.374-11.509 20.563-.404 1.476-.747 2.727-1.032 3.608-1.486 4.56-4.436 18.635-.799 23.659.867 1.199 2.031 1.783 3.557 1.788l.017.522v-.522c7.117 0 9.508-10.011 10.657-14.822.347-1.455.539-2.231.763-2.624.703-1.249 3.98-23.44.499-30.315-.579-1.145-1.278-1.752-2.136-1.856 0-.001-.01-.001-.02-.001z" fill="#736384"/>
 <path d="m348.59 117.7c.047 7.355-38.665 5.389-41.007 4.541-2.362-.851-22.682-1.12-24.173-10.429-1.477-9.33 25.085-6.593 32.294-5.259 7.18 1.37 32.84 3.82 32.89 11.15z" fill="#AFBDE1"/>
 <path d="m323.72 123.65c-7.633 0-15.167-.502-16.316-.919-.413-.148-1.668-.304-3.122-.485-6.534-.812-20.132-2.501-21.389-10.353-.22-1.387.11-2.607.98-3.625 2.078-2.434 7.229-3.667 15.307-3.667 7.001 0 13.931.94 16.617 1.437 1.18.226 2.856.479 4.835.779 10.633 1.611 28.43 4.308 28.479 10.877.005.734-.295 1.411-.893 2.011-3.25 3.26-15.12 3.95-24.51 3.95zm-24.54-18c-7.649 0-12.668 1.141-14.512 3.301-.672.786-.915 1.696-.743 2.782 1.133 7.075 14.204 8.699 20.485 9.479 1.701.211 2.825.351 3.348.539.813.294 7.661.857 15.962.857 12.803 0 21.461-1.325 23.757-3.635.398-.401.591-.816.588-1.267-.042-5.677-17.962-8.392-27.589-9.851-1.996-.302-3.686-.559-4.872-.785-2.66-.51-9.51-1.43-16.44-1.43z" fill="#736384"/>
 <path d="m340.67 117.09c-.205.96-1.097 1.572-1.995 1.372-.884-.194-1.43-1.123-1.231-2.076.225-.953 1.123-1.573 2.008-1.365.89.19 1.44 1.13 1.21 2.07z" fill="#602065"/>
 <path d="m55.482 87.648c8.24-2.158 10.949 29.7 10.623 31.909-.32 2.215 4.816 19.278-5.269 23.192-10.091 3.931-14.125-19.077-14.523-25.479-.410-6.38.928-27.451 9.169-29.622z" fill="#AFBDE1"/>
 <path d="m58.587 143.72c-9.167 0-12.47-21.177-12.796-26.419-.446-6.966 1.041-27.915 9.558-30.16 1.503-.394 2.945.17 4.227 1.656 5.496 6.37 7.368 28.663 7.046 30.836-.052.36.106 1.436.29 2.682.842 5.722 2.595 17.628-5.887 20.92-.825.33-1.646.49-2.438.49zm-2.314-55.654c-8.618 2.185-9.811 23.365-9.439 29.17.459 7.373 4.859 28.513 13.812 25.026 7.705-2.99 6.034-14.339 5.231-19.793-.219-1.489-.364-2.473-.29-2.986.305-2.059-1.615-23.988-6.803-30.001-.811-.947-1.656-1.423-2.511-1.423z" fill="#736384"/>
 <path d="m56.503 91.933c-.963.18-1.886-.46-2.049-1.43-.17-.953.47-1.872 1.433-2.045.966-.156 1.882.473 2.045 1.433.177.977-.473 1.892-1.429 2.042z" fill="#602065"/>
 <path d="m1.392 121.71c3.465-7.781 30.02 10.031 31.541 11.668 1.518 1.647 18.046 8.294 14.802 18.627-3.24 10.324-23.716-.908-28.971-4.594-5.228-3.71-20.844-17.92-17.372-25.71z" fill="#AFBDE1"/>
 <path d="m41.03 156.78c-7.414 0-18.405-6.027-22.566-8.946-3.664-2.594-21.447-17.599-17.549-26.342.67-1.505 2.099-2.268 4.246-2.268 8.506 0 26.717 12.244 28.156 13.792.251.272 1.201.829 2.301 1.474 4.979 2.919 15.34 8.994 12.617 17.666-.964 3.08-3.388 4.63-7.205 4.63zm-35.87-36.51c-1.721 0-2.797.539-3.291 1.647-3.111 6.98 10.85 20.571 17.196 25.062 3.909 2.742 14.87 8.755 21.964 8.755 3.354 0 5.384-1.273 6.206-3.891 2.474-7.878-7.402-13.668-12.148-16.451-1.315-.771-2.184-1.28-2.539-1.666-1.361-1.47-19.343-13.46-27.388-13.46z" fill="#736384"/>
 <path d="m7.365 125.58c-.473.868-1.545 1.177-2.399.694-.857-.459-1.171-1.535-.698-2.383.466-.878 1.539-1.174 2.393-.705.867.47 1.177 1.55.704 2.4z" fill="#602065"/>
 <path d="m93.813 231.31c9.067-2.294 11.691 31.463 11.304 33.812-.381 2.342 5.078 20.415-6.048 24.602-11.123 4.179-15.296-20.197-15.664-26.977-.374-6.77 1.327-29.12 10.405-31.43z" fill="#AFBDE1"/>
 <path d="m96.587 290.72c-10.019 0-13.404-22.405-13.705-27.95-.405-7.384 1.469-29.588 10.801-31.971 1.679-.425 3.271.213 4.68 1.873 5.867 6.915 7.64 30.278 7.269 32.53-.063.383.1 1.527.288 2.851.86 6.053 2.648 18.648-6.668 22.154-.904.35-1.801.52-2.665.52zm-1.902-59c-.242 0-.493.032-.744.096-8.781 2.242-10.353 24.736-10.015 30.9.424 7.821 5.065 30.233 14.958 26.516 8.532-3.21 6.822-15.245 6.001-21.028-.225-1.581-.373-2.625-.285-3.167.352-2.135-1.484-25.143-7.034-31.684-.919-1.09-1.888-1.64-2.881-1.64z" fill="#736384"/>
 <path d="m77.86 254.34c6.691-3.642 16.701 25.861 16.943 27.998.242 2.172 8.846 17.243.96 22.906-7.883 5.664-16.926-15.234-18.819-21.17-1.888-5.97-5.772-26.08.916-29.74z" fill="#AFBDE1"/>
 <path d="m92.953 306.73c-7.672 0-15.083-18.034-16.506-22.498-2.058-6.488-5.765-26.551 1.162-30.351.458-.25.944-.375 1.447-.375 7.085 0 16.026 26.638 16.268 28.773.041.363.444 1.367.912 2.529 2.103 5.222 6.478 16.088-.167 20.861-.981.71-2.029 1.07-3.116 1.07zm-13.897-52.18c-.331 0-.64.081-.945.248-6.007 3.295-2.953 21.91-.667 29.117 2.098 6.579 11.161 25.828 18.015 20.904 5.979-4.294 1.81-14.646-.193-19.621-.557-1.384-.925-2.298-.981-2.803-.244-2.16-9.248-27.85-15.229-27.85z" fill="#736384"/>
 <path d="m93.708 239.52c-.963.16-1.876-.49-2.042-1.45-.174-.963.476-1.872 1.443-2.032.96-.16 1.876.48 2.039 1.443.166.96-.481 1.89-1.44 2.04z" fill="#602065"/>
 <path d="m123.92 457.41c-3.019 7.95-30.541-8.318-32.154-9.885-1.606-1.538-18.492-7.249-15.836-17.732 2.658-10.497 23.736-.449 29.179 2.941 5.44 3.39 21.82 16.69 18.81 24.68z" fill="#AFBDE1"/>
 <path d="m119.74 460.11c-8.744 0-26.933-10.838-28.345-12.209-.259-.248-1.227-.742-2.347-1.314-5.149-2.631-15.865-8.105-13.632-16.921.849-3.354 3.47-5.053 7.789-5.053 7.44 0 18.152 5.173 22.173 7.678 5.931 3.687 22.127 17.071 19.024 25.304-.63 1.66-2.2 2.51-4.66 2.51zm-36.531-34.45c-3.833 0-6.049 1.395-6.775 4.264-2.028 8.008 8.186 13.227 13.095 15.733 1.339.685 2.224 1.137 2.597 1.494 1.339 1.3 19.325 11.915 27.619 11.915 2.009 0 3.214-.602 3.685-1.839 2.716-7.205-12.003-19.947-18.599-24.047-3.93-2.45-14.396-7.51-21.611-7.51z" fill="#5E506C"/>
 <path d="m117.52 452.67c.432-.892 1.484-1.259 2.361-.851.885.442 1.256 1.478.831 2.376-.412.878-1.471 1.245-2.359.823-.87-.43-1.25-1.47-.83-2.35z" fill="#602065"/>
 <path d="m90.838 487.72c-7.647 3.771-19.455-26.902-19.557-29.142-.123-2.233-8.563-17.931.541-23.771 9.115-5.854 17.645 15.882 19.305 22.069 1.662 6.18 7.366 27.1-.289 30.84z" fill="#AFBDE1"/>
 <path d="m89.474 488.56c-7.975 0-18.6-27.435-18.714-29.962-.02-.36-.391-1.387-.82-2.576-1.964-5.437-6.051-16.75 1.601-21.659 1.109-.712 2.267-1.073 3.44-1.073 8.517 0 15.403 18.796 16.652 23.448 1.868 6.956 7.403 27.564-.565 31.448-.503.24-1.04.37-1.594.37zm-14.494-54.23c-.97 0-1.938.306-2.875.907-6.951 4.459-3.055 15.242-1.183 20.424.513 1.422.853 2.36.881 2.879.118 2.586 12.047 32.033 18.804 28.702 4.775-2.327 4.796-12.438.065-30.056-1.674-6.23-8.399-22.85-15.692-22.85z" fill="#5E506C"/>
 <path d="m89.287 481.26c.909-.354 1.933.081 2.294 1.001.351.911-.096 1.939-1.004 2.287-.909.367-1.937-.089-2.3-.987-.348-.92 0.1-1.94 1.01-2.3z" fill="#602065"/>
 <path d="m167.86 221.1c-2.444 3.825 2.859 6.821 7.297 8.485 4.445 1.658 20.857 2.066 24.867-.48 3.989-2.563 5.038-6.239 6.072-9.894 1.021-3.676 1.776-10.153-.967-9.146-2.75.99-11.443 5.333-17.706 7.553-6.26 2.24-17.1-.32-19.56 3.49z" fill="#AFBDE1"/>
 <path d="m187.63 231.44c-5.368 0-10.451-.55-12.647-1.37-3.18-1.192-7.159-3.184-8.065-5.9-.372-1.115-.2-2.245.51-3.356 1.554-2.418 5.88-2.514 10.46-2.616 3.328-.074 6.769-.151 9.369-1.077 3.792-1.343 8.458-3.46 12.208-5.161 2.412-1.094 4.413-2 5.496-2.391l.708-.136c.49 0 .912.216 1.223.625 1.38 1.815.264 7.321-.283 9.289-1.046 3.698-2.128 7.519-6.293 10.194-2.72 1.74-9.79 1.92-12.7 1.92zm18.04-21.48l-.351.596c-1.072.386-3.044 1.282-5.422 2.36-3.768 1.709-8.457 3.836-12.289 5.194-2.758.982-6.285 1.061-9.696 1.137-4.294.096-8.35.186-9.603 2.135-.539.843-.669 1.648-.398 2.461.605 1.814 3.247 3.68 7.439 5.252 2.057.767 7.108 1.303 12.281 1.303 5.879 0 10.411-.649 12.122-1.735 3.83-2.461 4.811-5.926 5.85-9.596.881-3.173 1.276-7.297.457-8.374l-.39-.73z" fill="#736384"/>
 <path d="m132.19 417.86c2.334 8.202-29.465 11.538-31.684 11.266-2.223-.286-19.169 5.208-23.298-4.807-4.122-10.013 18.795-14.506 25.184-15.022 6.36-.54 27.46.36 29.79 8.56z" fill="#AFBDE1"/>
 <path d="m89.056 430.9c-6.438 0-10.587-2.146-12.333-6.38-.83-2.016-.69-3.953.417-5.759 4.21-6.871 21.223-9.661 25.208-9.984.929-.078 2.17-.127 3.619-.127 2.472 0 24.221.255 26.725 9.068.329 1.157.091 2.28-.708 3.339-4.626 6.127-27.6 8.608-31.107 8.608-1.069-.026-1.969.129-3.137.324-2.295.38-5.433.91-8.687.91zm16.914-21.21c-1.414 0-2.625.047-3.533.123-5.224.423-20.707 3.457-24.403 9.489-.935 1.525-1.047 3.101-.341 4.814 1.59 3.856 5.308 5.731 11.366 5.731 3.167 0 6.255-.518 8.51-.896 1.293-.216 2.221-.365 2.799-.364 4.048 0 26.482-2.47 30.784-8.167.599-.794.775-1.587.537-2.423-1.87-6.55-17.05-8.3-25.72-8.3z" fill="#5E506C"/>
 <path d="m120.4 418.37c-.188-.945.436-1.893 1.399-2.063.959-.184 1.889.436 2.069 1.396.194.96-.432 1.886-1.392 2.063-.97.20-1.9-.43-2.08-1.4z" fill="#602065"/>
 <path d="m350.18 72.965c.729 4.99-2.669 10.354-6.705 13.39-4.064 3.046-19.143 8.464-24.37 9.469-5.241 1.038-11.654.02-12.824-1.999-1.191-2.021-.579-.993 1.198-5.415 1.79-4.438 29.591-17.943 33.423-18.832 3.85-.895 8.53-1.603 9.27 3.387z" fill="#AFBDE1"/>
 <path d="m314.7 96.758c-3.648 0-7.81-.826-8.879-2.671-.843-1.43-.912-1.633-.189-2.978.304-.567.764-1.424 1.354-2.894 1.947-4.828 30.19-18.312 33.79-19.146 1.389-.322 3.01-.651 4.505-.651 3.152 0 4.972 1.504 5.408 4.471.79 5.408-2.9 10.87-6.908 13.884-4.084 3.062-19.057 8.502-24.585 9.564-1.45.288-3 .421-4.5.421zm30.58-27.295c-1.39 0-2.938.315-4.269.624-3.757.871-31.369 14.335-33.057 18.519-.611 1.522-1.088 2.41-1.403 2.998-.468.873-.468.873.171 1.956.979 1.688 7.163 2.763 12.272 1.751 5.313-1.021 20.251-6.445 24.158-9.374 3.638-2.737 7.225-7.94 6.501-12.896-.35-2.441-1.74-3.578-4.37-3.578z" fill="#736384"/>
 <path d="m343.36 75.596c-.763.439-1.041 1.354-.619 2.049.396.694 1.32.908 2.083.469.742-.436 1.021-1.344.606-2.052-.39-.694-1.33-.915-2.07-.466z" fill="#602065"/>
 <path d="m354.07 99.789c-1.437 4.843-6.76 8.292-11.694 9.36-4.963 1.072-20.926-.33-26.093-1.589-5.2-1.273-10.592-4.86-10.816-7.192-.231-2.328-.109-1.144 3.363-4.424 3.478-3.271 34.383-3.911 38.249-3.101 3.87.797 8.42 2.113 6.99 6.944z" fill="#AFBDE1"/>
 <path d="m336.94 110.05c-7.116 0-17.017-1.067-20.784-1.985-4.962-1.215-10.94-4.822-11.213-7.65-.164-1.65-.141-1.862 1.08-2.787.515-.39 1.292-.978 2.444-2.067 3.091-2.907 24.203-3.562 31.355-3.562 3.682 0 6.364.12 7.36.329 2.945.609 5.843 1.458 7.079 3.524.673 1.123.775 2.497.306 4.083-1.555 5.245-7.19 8.663-12.085 9.723-1.2.27-3.06.40-5.54.40zm2.89-17.003c-10.951 0-28.262 1.041-30.639 3.276-1.192 1.127-1.997 1.736-2.529 2.14-.795.602-.795.602-.671 1.852.182 1.89 5.125 5.439 10.42 6.736 4.974 1.212 21.392 2.551 25.858 1.586 4.444-.962 9.878-4.188 11.304-8.998.388-1.312.322-2.375-.201-3.249-1.029-1.719-3.682-2.476-6.395-3.038-.92-.203-3.6-.318-7.15-.318z" fill="#736384"/>
 <path d="m346.77 99.329c-.858.085-1.498.803-1.423 1.603.074.803.844 1.375 1.701 1.304.872-.085 1.505-.81 1.43-1.603-.09-.80-.85-1.373-1.71-1.301z" fill="#602065"/>
 <path d="m39.804 153.92c6.361-2.705 14.251 13.53 14.098 14.779-.157 1.252 4.656 9.482-3.066 13.475-7.723 3.999-11.933-7.648-12.542-11.014-.606-3.39-4.844-14.56 1.51-17.25z" fill="#AFBDE1"/>
 <path d="m47.728 183.52c-6.353 0-9.508-9.835-9.948-12.27-.097-.539-.288-1.278-.512-2.15-1.19-4.623-3.406-13.229 2.333-15.664 2.368-1.007 5.169.209 8.151 3.58 3.737 4.224 6.797 10.71 6.67 11.744-.01.16.174.746.337 1.263.867 2.756 2.898 9.211-3.682 12.613-1.134.59-2.261.89-3.349.89zm-6.437-29.38c-.442 0-.873.088-1.282.262-4.911 2.083-2.841 10.122-1.729 14.44.232.903.429 1.668.528 2.226.551 3.046 3.689 11.41 8.919 11.41.92 0 1.885-.258 2.868-.768 5.799-2.998 4.086-8.444 3.165-11.37-.285-.907-.42-1.359-.377-1.705-.033-1.1-6.492-14.5-12.092-14.5z" fill="#736384"/>
 <path d="m80.498 262.91c-.898.388-1.933-.034-2.318-.926-.398-.898.02-1.933.916-2.335.888-.374 1.943.034 2.325.933.384.91-.027 1.94-.923 2.34z" fill="#602065"/>
 <path d="m187.84 184.37c0-4.52 3.75-8.901 7.794-11.137 4.05-2.243 18.332-5.319 23.185-5.643 4.834-.296 10.483 1.327 11.28 3.26.796 1.938.388.954-1.791 4.673-2.178 3.741-28.978 12.563-32.565 12.907-3.57.37-7.9.45-7.9-4.06z" fill="#AFBDE1"/>
 <path d="m193.19 189.11c-1.45 0-5.863 0-5.871-4.737 0-4.93 4.05-9.375 8.064-11.595 4.241-2.348 18.724-5.395 23.404-5.707 4.74-.291 10.824 1.219 11.798 3.583.592 1.44.574 1.645-.231 2.732-.347.468-.87 1.173-1.592 2.405-2.386 4.099-29.612 12.841-32.967 13.163-.85.10-1.74.17-2.6.17zm26.8-21.03l-1.139.034c-4.966.331-19.139 3.461-22.964 5.578-3.625 2.004-7.525 6.201-7.525 10.68.004 2.553 1.492 3.692 4.825 3.692.832 0 1.687-.069 2.502-.152 3.499-.335 30.105-9.11 32.167-12.65.75-1.281 1.294-2.014 1.654-2.5.52-.701.52-.701.104-1.711-.55-1.37-4.88-2.97-9.61-2.97z" fill="#736384"/>
 <path d="m238.06 229.62c-.408.868-1.43 1.283-2.253.868-.81-.388-1.13-1.422-.729-2.301.429-.885 1.45-1.27 2.267-.885.81.39 1.14 1.43.71 2.32z" fill="#602065"/>
 <path d="m203.43 218.59c-.333.909-1.287 1.419-2.151 1.11-.864-.31-1.286-1.293-.966-2.223.333-.916 1.28-1.409 2.158-1.11.85.31 1.29 1.29.96 2.22z" fill="#602065"/>
 <path d="m252.1 217.04c-.43.888-1.437 1.286-2.254.888-.823-.395-1.157-1.419-.728-2.308.415-.875 1.429-1.273 2.253-.875.82.40 1.14 1.42.73 2.3z" fill="#602065"/>
 <path d="m218.25 196.35c-.279-4.424 2.642-8.485 5.956-10.418 3.315-1.947 15.323-4.06 19.428-4.06 4.125 0 9.04 1.954 9.857 3.887.782 1.947.381.974-1.239 4.476-1.634 3.53-23.968 10.477-26.997 10.606-3.04.12-6.72-.08-7.01-4.5z" fill="#AFBDE1"/>
 <path d="m224.18 201.39c-2.626 0-6.153-.519-6.457-5.001-.305-4.826 3.008-9.036 6.215-10.905 3.503-2.058 15.713-4.132 19.69-4.132 4.4 0 9.425 2.044 10.339 4.206.56 1.393.599 1.581-.053 2.657-.265.437-.662 1.093-1.193 2.242-1.779 3.843-24.59 10.786-27.45 10.908l-1.1.02zm19.45-18.99c-4.194 0-16.037 2.153-19.163 3.989-2.939 1.714-5.976 5.554-5.699 9.935.191 2.82 1.811 4.024 5.414 4.024l1.047-.024c2.957-.126 25.032-7.035 26.545-10.303.556-1.202.972-1.888 1.248-2.345.403-.665.403-.665-.02-1.716-.67-1.57-5.22-3.56-9.38-3.56z" fill="#736384"/>
 <path d="m247.39 188.4c-.415.882-1.423 1.266-2.232.882-.838-.405-1.157-1.44-.729-2.318.408-.875 1.43-1.27 2.239-.875.83.40 1.15 1.44.72 2.32z" fill="#602065"/>
</svg>
